<?xml version="1.0" standalone="no"?>
<!DOCTYPE svg PUBLIC "-//W3C//DTD SVG 20010904//EN"
 "http://www.w3.org/TR/2001/REC-SVG-20010904/DTD/svg10.dtd">
<svg version="1.0" xmlns="http://www.w3.org/2000/svg"
 width="2038.000000pt" height="2048.000000pt" viewBox="0 0 2038.000000 2048.000000"
 preserveAspectRatio="xMidYMid meet">

<g transform="translate(0.000000,2048.000000) scale(0.100000,-0.100000)"
fill="#000000" stroke="none">
<path d="M10675 20230 c-33 -5 -84 -11 -114 -14 -96 -10 -119 -17 -147 -47
-18 -19 -38 -29 -57 -29 -16 0 -42 -11 -58 -24 -16 -14 -54 -30 -85 -36 -32
-7 -100 -34 -153 -60 -53 -27 -113 -54 -134 -60 -44 -14 -246 -167 -308 -235
-56 -60 -109 -127 -109 -137 0 -17 -36 -89 -95 -193 -28 -49 -82 -159 -119
-244 -38 -85 -84 -174 -102 -198 -19 -25 -34 -50 -34 -57 0 -7 -23 -50 -50
-96 -51 -83 -129 -240 -157 -315 -8 -22 -18 -47 -23 -57 -25 -46 -111 -324
-125 -403 -9 -49 -21 -100 -26 -113 -5 -13 -9 -32 -9 -43 0 -12 -13 -60 -29
-107 -44 -131 -56 -209 -77 -522 -5 -83 -4 -93 8 -80 18 18 81 191 103 280 9
36 31 103 50 150 18 47 40 105 48 130 9 25 27 67 41 93 14 26 26 54 26 60 0 7
9 30 19 50 11 21 27 61 37 90 9 29 27 79 40 112 12 33 27 80 34 104 6 24 22
68 36 97 13 29 24 55 24 58 0 23 167 342 201 386 47 59 178 186 244 236 45 34
249 135 310 154 22 7 48 17 58 22 10 5 68 16 130 24 125 18 214 15 352 -12 17
-3 43 -8 58 -10 15 -2 36 -8 47 -14 10 -5 39 -10 65 -10 25 0 62 -7 83 -16 20
-8 57 -14 82 -13 64 3 114 -9 179 -42 31 -16 62 -29 69 -29 6 0 12 -5 12 -11
0 -6 7 -9 15 -6 8 4 47 -1 87 -9 40 -8 82 -13 94 -10 12 3 47 -3 77 -13 31
-11 77 -23 102 -26 25 -4 62 -16 82 -26 21 -11 45 -19 55 -19 9 0 19 -4 22 -9
8 -12 191 -101 209 -101 9 0 18 -4 21 -9 3 -5 21 -12 41 -15 19 -4 38 -14 43
-22 5 -9 12 -15 15 -15 19 3 27 0 27 -9 0 -5 21 -29 46 -52 31 -28 44 -48 41
-60 -3 -10 2 -26 11 -35 9 -9 24 -39 34 -66 10 -28 23 -54 30 -59 8 -5 3 -8
-15 -8 -27 0 -27 -1 -13 -21 13 -19 13 -24 -2 -47 -9 -15 -12 -23 -5 -19 8 5
11 -1 9 -20 -4 -32 -46 -48 -46 -18 0 24 -33 15 -45 -13 -5 -12 -14 -22 -19
-22 -10 0 -46 -40 -46 -51 0 -5 -11 -11 -25 -15 -14 -3 -25 -10 -25 -15 0 -5
-7 -9 -15 -9 -24 0 -17 -39 11 -65 27 -25 37 -29 62 -26 20 3 14 -16 -8 -22
-22 -6 -28 -37 -6 -37 8 0 16 -15 20 -38 3 -21 17 -52 31 -68 16 -18 21 -32
15 -38 -6 -6 -10 -20 -10 -32 0 -12 -6 -27 -14 -33 -23 -19 -12 -112 16 -133
l23 -18 -27 0 c-15 0 -30 -4 -33 -10 -3 -5 -17 -9 -30 -8 -13 1 -22 5 -19 9 2
4 0 10 -6 14 -6 4 -10 -6 -10 -23 0 -25 3 -29 20 -25 12 3 20 0 20 -7 0 -7 7
-10 17 -6 9 4 21 1 26 -6 6 -9 7 -6 4 10 -3 12 -2 20 3 17 4 -2 10 -23 14 -45
3 -22 11 -40 16 -40 6 0 10 -6 10 -14 0 -8 16 -24 35 -36 22 -14 35 -29 35
-43 0 -11 8 -29 18 -40 16 -19 16 -20 -5 -8 -12 6 -24 15 -27 19 -3 5 -22 9
-43 10 -21 1 -43 8 -49 17 -6 8 -16 15 -22 15 -15 0 -77 35 -119 67 -18 14
-33 22 -33 18 0 -5 -9 0 -21 10 -16 15 -25 17 -47 9 -15 -6 -67 -8 -117 -6
-121 6 -132 6 -192 -3 -41 -6 -58 -4 -77 9 -27 17 -106 22 -106 7 0 -5 -15
-15 -34 -21 -28 -9 -40 -8 -64 4 -17 9 -49 18 -73 22 -24 4 -51 11 -60 15 -12
6 -18 3 -22 -10 -2 -11 0 -24 5 -29 20 -20 -2 -33 -26 -17 -21 14 -24 14 -29
0 -4 -9 -19 -15 -42 -15 -22 0 -38 -6 -41 -15 -4 -8 -12 -15 -20 -15 -8 0 -14
-7 -14 -15 0 -8 -5 -15 -11 -15 -5 0 -15 -13 -20 -30 -6 -16 -17 -30 -24 -30
-8 0 -22 14 -32 30 -9 17 -23 30 -31 30 -7 0 -10 -4 -7 -10 16 -25 -9 -28 -49
-6 -31 17 -47 21 -59 14 -25 -13 -50 -2 -68 29 -8 16 -29 35 -45 43 -16 8 -40
25 -54 38 -14 13 -33 28 -42 33 -15 8 -18 6 -19 -13 l0 -23 -10 23 c-6 15 -5
30 1 43 9 16 7 19 -10 19 -11 0 -20 5 -20 10 0 6 -10 10 -22 10 -13 0 -32 7
-42 15 -18 13 -18 15 -3 15 15 0 16 4 7 20 -6 11 -19 20 -29 20 -10 0 -29 8
-42 18 -21 16 -51 31 -69 34 -3 1 -20 7 -37 15 -18 7 -33 10 -33 6 0 -3 -10 3
-23 15 -26 24 -90 54 -127 58 -14 1 -70 14 -126 27 -129 31 -184 37 -263 26
-135 -19 -240 -72 -343 -173 -77 -75 -114 -149 -121 -243 -3 -35 -8 -67 -11
-72 -11 -17 16 -59 40 -65 17 -5 43 8 104 49 44 30 85 55 90 55 6 0 10 6 10
14 0 14 68 36 110 36 12 0 28 7 36 15 27 27 143 22 224 -10 122 -48 186 -105
144 -128 -35 -20 -205 -21 -334 -2 -25 4 -50 7 -56 8 -18 1 -124 -45 -124 -54
0 -4 -30 -28 -68 -52 -71 -46 -182 -167 -182 -199 0 -14 66 -36 126 -42 82 -9
84 -11 127 -67 29 -38 44 -49 65 -49 16 0 44 -12 63 -26 64 -48 102 -58 304
-80 81 -9 150 -7 173 5 11 6 34 11 49 11 16 0 33 4 39 8 14 13 86 31 112 29
20 -2 26 6 39 43 17 51 31 72 43 65 14 -8 70 29 76 50 4 11 14 29 24 40 10 11
21 46 25 80 4 33 16 76 28 95 24 39 73 87 100 96 9 3 17 11 17 17 0 7 18 12
45 13 25 1 45 -3 45 -8 0 -18 47 -60 55 -49 13 23 93 -75 111 -136 23 -78 14
-113 -51 -199 -31 -41 -53 -79 -50 -85 4 -5 -2 -24 -13 -42 -10 -18 -22 -51
-26 -72 -5 -23 -18 -46 -32 -58 -18 -14 -22 -22 -14 -31 5 -7 7 -16 3 -19 -3
-4 -1 -7 6 -7 17 0 5 -37 -25 -77 -28 -37 -30 -62 -9 -103 23 -45 13 -171 -19
-242 -14 -31 -26 -60 -26 -63 0 -13 -104 -115 -117 -115 -14 0 -48 -17 -73
-37 -9 -7 -47 -15 -85 -18 -38 -3 -80 -12 -92 -20 -13 -9 -25 -14 -27 -13 -2
2 -12 -5 -23 -14 -17 -16 -21 -16 -48 -2 -16 8 -32 19 -35 23 -3 4 -22 17 -42
29 -36 22 -39 22 -94 8 -31 -8 -63 -21 -70 -28 -17 -17 -21 -95 -6 -110 7 -7
12 -20 12 -29 0 -9 16 -27 35 -40 19 -13 35 -27 35 -32 0 -4 12 -12 27 -18 29
-11 21 -29 -16 -32 -11 -1 -21 -5 -21 -10 0 -5 -8 -6 -19 -2 -10 3 -56 -1
-102 -9 -46 -7 -111 -12 -144 -11 -33 2 -79 4 -102 4 -30 1 -50 8 -69 26 l-27
25 63 57 c35 32 79 73 98 91 19 17 38 32 42 32 10 0 54 91 58 120 10 77 7 95
-13 96 -11 0 -31 -5 -45 -12 -14 -7 -54 -22 -90 -35 -36 -12 -86 -37 -113 -56
-26 -18 -49 -33 -52 -33 -7 0 -99 -64 -106 -74 -4 -5 -16 -9 -28 -10 -27 -1
-97 -69 -105 -101 -4 -14 -23 -59 -43 -101 -34 -73 -35 -79 -28 -148 4 -39 7
-82 7 -96 -1 -32 36 -160 46 -160 4 0 16 15 26 34 10 19 24 32 31 30 17 -7 35
-49 35 -82 0 -31 29 -110 49 -134 8 -9 20 -14 27 -11 8 3 17 -2 20 -11 3 -9
12 -16 19 -16 7 0 20 -15 29 -32 9 -18 30 -55 47 -83 16 -27 35 -60 41 -73 6
-12 21 -25 33 -28 26 -7 78 -60 71 -73 -4 -5 -1 -21 6 -36 8 -19 14 -22 21
-13 5 9 7 4 3 -13 -5 -21 -1 -28 14 -32 25 -6 43 -53 34 -87 -4 -14 -7 -28 -6
-32 1 -5 -3 -8 -8 -8 -19 0 -9 -45 20 -92 17 -27 34 -48 39 -48 5 0 22 -20 38
-45 15 -25 33 -45 38 -45 6 0 25 -14 44 -32 41 -38 113 -89 168 -117 44 -22
208 -55 225 -45 14 9 149 13 144 5 -2 -3 10 -6 27 -5 18 1 37 -6 43 -14 5 -8
26 -14 47 -14 33 0 45 -6 94 -48 16 -13 76 -13 90 1 8 8 19 8 42 -2 25 -11 29
-18 24 -39 -9 -38 -20 -48 -63 -55 -36 -6 -39 -9 -45 -48 -10 -58 -19 -67 -58
-57 -18 5 -57 14 -87 21 -30 6 -65 19 -77 27 -14 9 -33 12 -50 8 -18 -4 -23
-3 -14 2 11 8 10 14 -4 36 -10 14 -23 26 -30 26 -8 0 -17 9 -20 21 -4 11 -9
18 -12 15 -4 -3 -12 -1 -20 5 -10 9 -13 8 -13 -5 0 -9 5 -16 12 -16 6 0 8 -3
4 -7 -4 -5 -24 -8 -44 -8 -37 0 -37 -1 -41 -45 -2 -25 -4 -66 -4 -92 0 -42 -3
-47 -26 -51 -14 -3 -34 -1 -45 5 -10 5 -35 7 -55 4 -20 -4 -47 -8 -61 -9 l-25
-2 0 94 c-1 63 -5 96 -12 98 -7 3 -9 12 -6 21 3 9 -4 2 -16 -16 l-21 -33 -22
21 c-30 27 -38 25 -32 -7 4 -23 -2 -32 -30 -53 -20 -14 -34 -33 -33 -43 2 -15
-8 -18 -67 -22 -113 -8 -122 2 -89 94 16 46 16 49 -3 74 -13 19 -39 33 -85 47
-80 24 -93 25 -124 4 -33 -21 -64 -10 -72 27 -3 16 -12 29 -19 29 -15 0 -34
30 -34 54 0 9 -8 24 -18 34 -10 10 -24 43 -31 75 -7 31 -17 59 -22 62 -13 8
-11 69 2 82 8 8 6 18 -6 37 -10 14 -20 26 -24 26 -10 -1 -61 -49 -61 -58 0 -5
-11 -7 -25 -4 -14 2 -25 10 -25 17 0 7 -7 26 -15 41 -8 16 -15 53 -15 82 0 28
-4 52 -8 52 -5 0 -5 23 -2 52 9 66 3 87 -29 116 -47 41 -51 44 -51 32 0 -6 -4
-9 -9 -6 -5 4 -8 67 -7 142 1 98 -1 132 -9 122 -6 -7 -19 -18 -30 -25 -11 -6
-19 -15 -18 -20 4 -19 -57 0 -71 21 -12 19 -12 34 2 116 11 70 12 95 4 98 -7
2 -28 28 -48 58 -21 32 -42 53 -52 52 -37 -3 -51 3 -57 23 -4 12 -14 29 -23
38 -10 10 -22 26 -29 37 -11 19 -11 19 -18 -1 -3 -11 -11 -28 -16 -37 -18 -34
-10 -68 23 -99 30 -27 33 -34 31 -89 0 -33 2 -59 5 -58 23 3 42 -4 37 -12 -4
-6 -11 -8 -16 -5 -13 9 -11 -7 5 -27 15 -20 48 -23 75 -8 16 8 19 4 25 -30 5
-32 2 -44 -14 -60 -11 -11 -20 -31 -20 -44 0 -36 -20 -43 -41 -15 -21 28 -28
23 -39 -28 -10 -44 28 -239 61 -309 10 -22 19 -46 19 -53 0 -6 7 -23 16 -36 8
-13 26 -53 38 -89 13 -36 28 -71 33 -78 6 -7 18 -37 28 -66 9 -29 25 -61 35
-70 24 -23 40 -56 40 -82 0 -11 20 -56 45 -99 25 -43 50 -93 56 -112 7 -19 16
-39 21 -46 5 -6 18 -62 29 -125 11 -62 24 -129 29 -148 6 -19 10 -65 10 -102
0 -50 5 -76 20 -100 16 -26 20 -51 20 -113 0 -61 5 -89 20 -118 11 -21 22 -54
24 -75 5 -51 16 -82 29 -82 6 0 8 -3 5 -6 -4 -3 -18 2 -32 11 -16 11 -26 13
-26 6 0 -16 37 -51 54 -51 7 0 19 -7 26 -15 19 -23 43 -19 35 5 -3 11 -2 20 4
20 5 0 12 -9 16 -19 3 -11 12 -24 19 -31 11 -9 17 -4 30 21 11 22 13 36 6 43
-14 14 -12 42 4 55 10 9 16 8 26 -4 7 -8 22 -15 34 -15 29 0 50 -15 41 -29 -3
-7 2 -28 13 -49 10 -20 22 -53 26 -72 4 -20 18 -44 33 -55 73 -57 93 -79 93
-99 0 -22 34 -46 64 -46 23 0 26 -71 5 -101 -17 -24 -66 -44 -96 -40 -7 1 -13
-7 -13 -19 0 -11 -7 -20 -16 -20 -8 0 -12 -4 -9 -10 8 -13 2 -13 -30 2 -26 12
-33 32 -14 44 8 5 6 10 -5 16 -11 6 -22 6 -31 -2 -18 -15 -63 -2 -61 18 1 11
-8 18 -22 20 -17 3 -21 -1 -19 -15 7 -43 77 -133 103 -133 14 0 38 -47 48 -92
4 -16 3 -28 -2 -28 -5 0 -14 -11 -20 -25 -14 -31 2 -78 37 -109 11 -11 21 -25
21 -31 0 -7 15 -18 33 -25 17 -7 53 -23 78 -36 25 -13 49 -21 52 -17 8 7 55
-44 63 -69 6 -20 25 -23 40 -8 6 6 26 12 46 14 19 2 40 6 45 9 6 4 16 0 23 -8
16 -20 46 -19 54 1 9 24 7 28 -9 14 -13 -11 -14 -10 -10 2 10 25 72 30 116 8
34 -16 40 -16 48 -3 7 13 15 12 55 -11 34 -19 64 -27 111 -29 35 -1 67 -6 71
-10 16 -15 26 -6 20 19 -5 17 -3 24 4 19 7 -4 10 -1 8 6 -3 15 46 69 62 69 6
0 10 7 10 15 0 21 18 19 23 -2 4 -17 4 -17 10 0 4 9 9 24 12 33 3 11 15 15 38
13 18 -2 38 1 46 5 7 5 23 3 36 -4 32 -17 90 -5 118 25 16 18 28 23 45 18 32
-8 21 -29 -13 -25 -26 4 -28 2 -16 -12 7 -9 10 -16 5 -16 -5 0 1 -7 13 -15 29
-21 49 -81 33 -100 -9 -11 -9 -15 -1 -15 6 0 11 4 11 9 0 6 9 9 21 8 20 -1 20
-2 -4 -22 -20 -16 -23 -25 -16 -42 4 -13 15 -23 23 -23 19 0 73 52 78 75 2 11
11 19 21 19 9 -1 17 2 17 7 0 5 -5 9 -10 9 -6 0 -8 12 -6 26 4 19 2 23 -7 16
-19 -15 -65 -23 -72 -12 -4 6 5 10 20 10 15 0 35 5 46 10 15 8 24 6 40 -9 21
-20 22 -20 53 2 17 12 53 41 81 65 27 23 55 42 62 42 7 0 13 5 13 10 0 6 36
37 81 70 45 33 107 82 138 110 31 27 92 77 136 112 91 71 119 96 219 189 94
88 132 119 144 119 16 0 279 258 338 331 29 37 73 88 99 115 49 53 115 176
115 215 0 14 -9 42 -20 64 -11 22 -20 45 -20 53 0 8 -9 25 -20 39 -23 29 -26
83 -10 177 11 66 31 96 61 89 23 -6 24 0 3 33 -21 32 -15 138 16 267 24 100
37 134 55 141 26 9 86 -13 126 -47 27 -24 56 -38 84 -42 43 -7 60 0 183 71 30
18 125 135 184 229 14 22 36 49 49 61 13 12 33 36 44 55 11 18 25 40 30 49 75
114 120 214 129 285 12 87 24 108 116 205 50 52 93 106 96 120 3 14 26 83 51
154 39 110 46 141 47 210 1 95 -19 140 -74 168 -43 22 -127 23 -193 3 -58 -17
-82 -9 -90 32 -5 28 5 69 49 197 13 38 24 76 24 85 0 9 12 41 26 71 15 30 36
75 48 100 30 63 85 150 96 150 5 0 12 9 15 20 8 24 38 42 57 35 13 -5 30 -52
44 -120 8 -44 26 -88 41 -103 7 -7 13 -19 13 -26 0 -8 6 -19 14 -25 8 -7 18
-27 22 -44 3 -18 14 -40 24 -49 10 -10 24 -33 31 -53 8 -21 20 -35 30 -35 9 0
20 -7 23 -16 4 -10 2 -13 -6 -8 -8 5 -9 2 -5 -10 4 -10 7 -20 7 -22 0 -3 5 -2
12 2 7 5 8 3 3 -6 -4 -7 -2 -16 5 -20 9 -6 7 -11 -9 -19 -28 -16 -27 -39 9
-114 17 -35 30 -74 30 -85 0 -12 4 -22 8 -22 12 0 65 -117 58 -129 -4 -5 -2
-12 4 -16 5 -3 10 -13 10 -22 0 -9 11 -31 25 -49 14 -18 25 -41 25 -52 0 -10
9 -27 20 -37 18 -16 19 -20 6 -27 -10 -6 -15 -23 -14 -55 1 -51 7 -66 58 -138
46 -65 58 -85 71 -115 6 -14 16 -34 22 -45 35 -63 54 -110 50 -122 -3 -8 3
-13 16 -13 12 0 21 -6 21 -15 0 -8 8 -23 18 -33 9 -10 17 -32 17 -52 0 -19 10
-55 23 -80 12 -25 22 -51 22 -58 0 -7 11 -31 25 -53 15 -22 24 -48 21 -57 -8
-27 -9 -110 -1 -187 5 -60 33 -135 56 -155 3 -3 8 -12 11 -21 4 -10 23 -19 48
-23 23 -4 52 -17 65 -31 21 -20 30 -22 55 -15 27 8 32 6 44 -18 9 -18 13 -56
11 -112 -3 -118 -14 -178 -40 -230 -13 -25 -26 -66 -30 -92 -3 -27 -10 -48
-14 -48 -5 0 -11 -10 -14 -22 -19 -79 -38 -133 -55 -152 -11 -11 -18 -28 -17
-37 3 -19 -34 -20 -54 -1 -7 7 -16 10 -19 7 -4 -3 -2 -9 3 -13 6 -4 11 -17 13
-29 5 -34 -34 -31 -40 2 -3 14 -1 25 4 25 5 0 3 10 -4 23 -6 12 -13 49 -14 82
-8 296 -16 419 -29 439 -7 11 -15 35 -17 51 -2 17 -9 40 -16 51 -6 12 -8 24
-5 28 3 3 1 6 -6 6 -18 0 -19 -6 -37 -165 -4 -33 -10 -64 -14 -70 -5 -5 -11
-26 -14 -45 -3 -19 -10 -57 -16 -85 -6 -27 -13 -66 -16 -85 -10 -67 -15 -81
-24 -75 -5 3 -11 -3 -15 -14 -3 -11 -19 -22 -35 -26 l-28 -6 33 -34 c19 -18
39 -35 45 -37 6 -2 8 -11 5 -20 -5 -14 -28 -21 -92 -30 -15 -2 -17 -54 -3 -63
6 -3 10 -15 10 -27 0 -16 -3 -18 -14 -9 -8 6 -17 37 -21 68 -4 32 -9 66 -11
78 -3 11 -5 51 -5 88 1 42 -5 79 -14 97 -8 16 -15 49 -15 74 0 25 -9 69 -20
98 -21 57 -37 116 -50 188 -23 120 -33 151 -44 139 -2 -2 2 -40 10 -84 13 -71
13 -86 -1 -138 -9 -32 -25 -67 -36 -78 -11 -11 -19 -33 -19 -51 0 -17 3 -28 7
-25 11 12 33 -30 26 -50 -4 -10 -22 -33 -40 -51 -38 -39 -43 -77 -14 -113 21
-27 14 -62 -15 -73 -9 -3 -18 -5 -19 -4 -28 43 -57 163 -48 198 3 10 -5 40
-17 67 -11 26 -24 76 -27 110 -4 40 -12 68 -23 78 -15 14 -16 11 -18 -33 -5
-111 -13 -143 -49 -181 -25 -26 -33 -42 -29 -58 3 -13 9 -34 12 -48 4 -16 0
-35 -12 -52 -11 -16 -21 -48 -25 -73 l-5 -45 -26 55 c-14 30 -40 100 -57 155
-18 55 -41 120 -52 145 -12 25 -24 54 -29 65 -4 11 -15 37 -24 58 -9 21 -16
45 -17 55 0 14 -2 13 -8 -3 -5 -11 -4 -33 1 -50 15 -54 7 -139 -16 -166 -12
-14 -28 -28 -36 -31 -12 -4 -15 -28 -15 -112 0 -58 -2 -106 -6 -106 -8 0 -21
29 -85 187 -101 251 -137 305 -99 150 23 -94 26 -116 25 -215 -1 -91 -10 -125
-42 -159 -11 -12 -18 -29 -15 -37 4 -9 2 -16 -3 -16 -11 0 -65 89 -114 188
-21 41 -51 92 -67 115 -29 40 -30 41 -23 12 4 -16 11 -38 15 -47 23 -45 3
-149 -41 -209 -17 -24 -26 -47 -23 -59 3 -11 2 -20 -2 -20 -9 0 -36 27 -55 55
-8 12 -41 50 -72 83 -49 54 -55 58 -48 32 17 -59 -33 -166 -82 -177 -16 -3
-28 -10 -28 -15 0 -5 23 -78 51 -161 62 -186 63 -178 -34 -372 -52 -103 -329
-577 -458 -783 -22 -35 -76 -136 -120 -224 -44 -88 -103 -199 -131 -247 -27
-47 -71 -131 -98 -186 -201 -418 -245 -504 -273 -532 -17 -18 -36 -33 -43 -33
-7 0 -13 -23 -16 -59 -4 -51 -20 -89 -122 -292 -184 -363 -526 -1048 -526
-1053 0 -2 -32 -71 -71 -153 -69 -145 -192 -410 -271 -588 -22 -49 -56 -123
-75 -164 -67 -146 -242 -559 -308 -731 -37 -96 -73 -188 -80 -205 -12 -27 -82
-200 -172 -425 -19 -47 -40 -98 -47 -115 -7 -16 -34 -82 -59 -145 -51 -131
-181 -460 -286 -725 -40 -99 -76 -189 -81 -200 -5 -11 -20 -49 -33 -85 -34
-90 -177 -454 -249 -635 -33 -82 -75 -193 -93 -245 -70 -197 -116 -322 -200
-540 -134 -348 -164 -431 -310 -848 -36 -101 -78 -218 -94 -260 -17 -43 -57
-153 -90 -247 -90 -259 -146 -397 -239 -595 -85 -183 -160 -372 -186 -475 -17
-66 -51 -276 -61 -370 -3 -33 -12 -109 -20 -170 -18 -144 -37 -501 -31 -590 7
-107 16 -410 21 -720 2 -154 7 -319 11 -367 l7 -88 4833 0 c4245 0 4834 2
4834 15 0 8 12 49 26 92 14 43 27 105 30 138 13 203 21 235 60 235 12 0 27 7
34 15 9 11 16 13 24 5 5 -5 20 -10 33 -10 12 0 46 -9 75 -21 37 -14 66 -19
101 -15 32 3 76 -3 126 -16 63 -16 104 -19 236 -18 226 3 246 3 481 0 245 -3
302 6 335 51 23 32 21 46 -17 113 -31 56 -70 95 -103 102 -14 4 -30 12 -36 18
-64 76 -244 174 -376 206 -105 24 -110 24 -179 -1 -78 -28 -119 -40 -165 -45
-22 -2 -62 -9 -88 -14 -27 -6 -52 -8 -56 -6 -14 9 -165 -34 -186 -54 -12 -11
-26 -20 -32 -20 -6 0 -34 -16 -62 -35 -28 -19 -55 -35 -61 -35 -6 0 -21 -5
-33 -12 -45 -25 -110 -2 -126 45 -18 50 3 114 66 203 24 34 43 69 43 78 0 9
-12 39 -27 68 l-26 51 17 66 c10 36 19 73 21 81 2 8 8 35 14 60 20 82 60 412
72 600 19 274 17 491 -5 645 -16 109 -18 165 -13 345 4 118 11 253 16 300 11
89 56 511 71 663 8 83 5 123 -20 272 -5 33 -10 89 -10 123 0 64 33 250 50 282
15 28 13 78 -6 200 -22 148 -22 344 0 422 17 58 17 126 -2 418 -5 78 -4 114 6
139 10 25 12 70 8 171 -2 76 -2 141 1 143 3 3 20 -9 38 -27 37 -38 82 -62 52
-28 -9 10 -17 24 -17 30 0 6 -11 22 -24 36 -13 14 -31 51 -41 81 -9 30 -21 57
-26 61 -5 3 -9 23 -9 45 0 22 -5 60 -11 85 -10 38 -9 47 6 64 18 20 14 52 -13
82 -10 13 -12 21 -4 30 16 20 8 60 -23 118 -20 37 -22 65 -6 65 8 0 19 8 25
18 9 15 6 22 -15 40 -34 29 -87 107 -93 138 -2 13 -10 50 -17 82 -9 41 -9 64
-2 80 43 92 83 202 94 257 6 36 18 72 26 81 8 10 11 27 7 46 -4 20 1 44 14 72
17 35 19 47 10 73 -8 23 -8 44 0 77 15 58 8 271 -12 366 -7 39 -17 93 -21 120
-3 28 -13 75 -21 105 -8 30 -19 141 -24 245 -5 105 -16 226 -24 270 -20 108
-40 393 -33 473 3 35 10 69 16 75 15 15 14 44 -3 50 -15 6 -46 119 -46 169 0
18 -9 85 -19 148 -17 105 -17 117 -2 140 8 14 21 29 28 33 9 6 10 13 1 32 -6
14 -15 25 -20 25 -16 0 -7 21 20 48 16 15 27 33 24 40 -2 7 7 12 23 12 15 0
24 4 20 10 -3 6 -14 10 -24 10 -10 0 -44 12 -75 26 -63 29 -81 55 -85 124 -2
33 -10 53 -30 75 -15 17 -39 57 -52 89 -26 66 -218 450 -252 507 -12 20 -40
54 -62 76 -71 71 -114 126 -120 152 -9 42 28 376 60 536 9 44 22 120 30 168 7
49 19 94 25 102 6 7 13 29 15 49 3 20 9 55 15 78 5 24 10 81 10 128 2 136 25
160 41 41 10 -70 24 -85 42 -42 l14 33 7 -26 c3 -14 11 -26 16 -26 6 0 10 -6
10 -14 0 -8 6 -21 13 -28 7 -7 16 -22 20 -32 12 -32 17 -13 18 70 1 101 5 117
29 109 18 -6 18 -4 -1 66 -14 50 -17 75 -9 83 5 5 10 6 10 1 0 -5 7 0 15 11
14 18 17 16 77 -46 63 -66 128 -152 128 -170 0 -5 11 -34 25 -65 17 -36 35
-60 55 -70 16 -8 34 -23 40 -32 20 -34 0 39 -40 142 -52 133 -52 128 -10 131
58 3 60 4 60 13 0 11 -45 88 -107 182 -55 83 -57 103 -10 77 12 -6 29 -12 37
-13 8 -1 35 -5 59 -10 l44 -7 -7 27 c-10 39 12 89 46 104 45 20 113 23 175 7
38 -10 62 -12 74 -5 10 5 33 9 53 9 20 0 61 14 100 35 68 36 68 36 91 -9 16
-30 35 -31 35 -2 0 21 4 25 21 23 11 -2 24 -10 29 -17 11 -18 33 -1 55 45 9
20 33 44 55 57 26 15 47 38 60 66 11 24 25 40 30 37 5 -3 14 4 20 15 7 12 18
19 25 16 8 -3 17 -1 20 4 3 5 12 7 20 3 26 -9 45 15 34 44 -8 21 -6 28 11 40
11 8 20 20 20 27 0 8 7 19 15 26 8 7 15 21 15 32 0 10 7 21 15 24 9 4 12 15 9
33 -5 23 2 36 41 76 41 43 45 52 36 72 -16 35 -14 61 10 109 18 37 19 48 8 82
-11 38 -10 43 19 84 17 23 33 57 37 75 3 17 13 37 21 44 8 6 14 19 14 29 0 10
12 26 27 36 66 42 68 48 68 150 0 93 1 95 30 119 17 13 35 24 41 25 7 0 22 9
35 20 l24 19 -33 7 c-43 9 -122 97 -122 136 0 55 35 109 110 169 78 62 94 87
80 124 -25 67 -5 135 64 210 117 130 121 135 104 151 -26 26 -60 7 -185 -105
-29 -25 -69 -59 -89 -76 -20 -16 -51 -44 -69 -61 -17 -17 -40 -34 -49 -37 -10
-4 -14 -11 -11 -17 3 -5 -5 -15 -19 -22 -16 -6 -26 -20 -27 -32 0 -20 -1 -20
-9 2 -5 12 -16 22 -25 22 -8 0 -15 7 -15 15 0 8 7 15 15 15 22 0 18 24 -11 67
-23 33 -25 45 -21 94 3 37 14 70 31 97 14 23 26 48 26 56 0 8 7 22 16 31 15
15 15 17 -3 21 -27 7 -53 55 -53 96 0 38 21 82 91 185 63 93 66 103 29 103
-16 0 -41 -5 -55 -12 -19 -9 -28 -9 -37 0 -7 7 -20 12 -30 12 -13 0 -18 8 -18
26 0 14 -4 23 -8 20 -18 -11 -4 93 22 162 15 41 26 75 24 77 -2 2 -12 5 -23 7
-33 5 -73 47 -79 83 -5 22 0 53 14 91 30 87 29 91 -32 97 -34 3 -60 1 -73 -7
-14 -9 -28 -10 -47 -4 -24 8 -28 15 -29 51 -1 23 -1 45 0 49 0 4 -15 4 -34 1
-28 -4 -38 -1 -58 21 -24 26 -26 35 -14 66 3 8 18 49 33 90 15 41 54 126 86
188 32 62 58 120 58 130 0 9 -14 43 -30 76 -33 67 -33 83 10 196 29 78 54 156
64 201 5 22 0 29 -28 44 -31 17 -35 17 -50 3 -8 -9 -12 -19 -8 -24 4 -5 -3 -1
-15 9 -21 18 -22 18 -42 -2 -18 -18 -22 -19 -27 -6 -8 21 -34 19 -35 -2 0 -11
-3 -13 -6 -5 -7 18 -83 16 -83 -3 0 -22 -18 -18 -25 5 -3 11 -10 20 -14 20 -4
0 -17 -9 -29 -20 -12 -11 -24 -20 -28 -20 -4 0 -12 -7 -18 -16 -11 -14 -18
-14 -57 -3 -58 16 -60 19 -50 56 7 23 5 37 -5 50 -8 11 -13 13 -14 5 0 -7 -9
-23 -21 -35 -11 -12 -30 -34 -41 -48 -16 -19 -27 -24 -50 -21 -15 2 -33 12
-38 22 -5 10 -24 20 -42 23 -18 3 -42 7 -53 10 -11 2 -26 0 -32 -6 -10 -7 -13
-3 -13 15 0 30 16 122 36 209 23 97 14 117 -21 44 -15 -33 -32 -68 -37 -78
-12 -24 -54 -145 -62 -177 -6 -26 -70 -100 -86 -100 -5 0 -30 -20 -57 -45 -26
-25 -55 -45 -65 -45 -10 0 -21 -1 -25 -2 -3 -2 -13 16 -20 39 -14 41 -14 41
-41 27 -15 -8 -33 -14 -39 -14 -7 0 -13 -4 -13 -9 0 -5 -9 -7 -20 -4 -17 5
-20 14 -20 67 0 34 9 157 19 272 11 115 22 268 25 339 4 72 9 166 12 210 3 51
2 75 -4 66 -7 -9 -9 -3 -8 20 1 47 -17 48 -27 2 -4 -21 -14 -52 -22 -70 -8
-17 -12 -38 -9 -47 3 -9 1 -22 -5 -30 -6 -7 -8 -16 -4 -19 3 -4 1 -7 -5 -7 -6
0 -16 -19 -22 -41 -6 -23 -15 -38 -19 -33 -13 14 -20 93 -10 100 15 9 10 23
-12 35 -17 9 -23 8 -30 -2 -7 -11 -9 -10 -9 4 0 11 -5 17 -12 14 -7 -2 -12
-11 -10 -18 2 -11 -1 -11 -10 1 -18 21 -39 23 -31 3 4 -11 3 -14 -5 -9 -8 5
-12 -3 -12 -27 0 -19 -5 -47 -10 -64 -6 -16 -15 -67 -20 -114 -11 -106 -20
-151 -32 -166 -6 -7 -3 -15 8 -21 11 -6 13 -11 5 -16 -6 -4 -11 -25 -11 -46 0
-21 -4 -42 -10 -45 -11 -7 -22 30 -18 60 3 21 -2 25 -27 25 -9 0 -15 -9 -15
-24 0 -14 -4 -28 -10 -31 -5 -3 -10 -19 -10 -36 0 -34 -18 -39 -24 -6 -7 30
-23 168 -36 302 -6 61 -15 114 -21 119 -5 6 -9 18 -9 27 0 10 -5 30 -11 46
-10 26 -12 26 -19 8 -4 -11 -10 -51 -14 -88 -6 -64 -20 -104 -39 -118 -5 -3
-11 -26 -14 -50 -7 -64 -13 -79 -23 -54 -4 12 -3 23 3 27 8 4 7 14 0 30 -11
23 -12 23 -14 -7 -1 -16 -3 -39 -4 -50 -1 -11 -2 -29 -3 -40 -2 -14 -9 -7 -26
25 -13 25 -26 57 -30 72 -3 15 -19 40 -35 55 -30 29 -61 98 -61 135 0 14 -4
18 -9 12 -8 -8 -18 -57 -38 -179 -2 -16 -9 -39 -14 -51 -6 -11 -9 -24 -8 -30
1 -5 1 -19 0 -32 -1 -21 -5 -23 -31 -17 -19 4 -30 3 -30 -4 0 -6 -5 -11 -11
-11 -5 0 -7 5 -4 10 3 6 1 10 -5 10 -7 0 -10 7 -7 15 8 19 -13 32 -23 14 -6
-9 -13 -3 -26 23 -11 24 -25 38 -42 41 l-25 5 7 -89 c4 -52 3 -96 -3 -106 -18
-34 -29 -80 -21 -93 4 -6 1 -25 -7 -41 -17 -35 -14 -89 16 -234 11 -55 20
-118 20 -140 l0 -40 -14 32 c-7 18 -21 78 -30 135 -27 172 -35 206 -51 212
-11 4 -14 -4 -14 -34 0 -49 -15 -90 -34 -90 -19 0 -24 -18 -15 -55 27 -110 33
-151 34 -237 1 -81 -1 -101 -16 -117 -9 -10 -27 -39 -39 -65 -19 -42 -22 -45
-36 -31 -9 8 -22 15 -29 15 -13 0 -55 119 -71 199 -4 17 -12 35 -19 41 -15 13
-20 2 -30 -70 -7 -49 -47 -116 -75 -125 -26 -8 -43 -49 -38 -93 2 -22 0 -39
-3 -36 -10 6 -27 -44 -33 -99 -5 -44 -4 -48 19 -57 23 -9 25 -14 20 -47 -6
-34 -3 -40 24 -58 34 -22 41 -41 40 -105 -2 -61 -12 -106 -24 -102 -12 5 -23
-25 -24 -65 -1 -41 -23 -44 -40 -5 -18 39 -121 301 -121 307 0 16 -52 85 -60
80 -7 -4 -6 -14 1 -26 6 -12 8 -39 4 -62 -19 -131 -37 -163 -82 -151 -17 5
-24 -1 -34 -30 -7 -20 -17 -36 -22 -36 -4 0 -20 26 -35 58 -15 31 -53 100 -84
152 -65 110 -73 133 -64 195 7 46 21 59 29 28 3 -10 5 15 6 55 0 39 4 72 9 71
4 0 18 -8 32 -17 14 -9 43 -28 63 -40 20 -13 37 -27 37 -31 0 -11 50 -32 61
-26 16 10 10 36 -24 109 -19 39 -40 86 -47 104 -9 24 -16 30 -25 22 -9 -8 -17
-3 -30 17 -10 15 -31 38 -46 51 -16 13 -29 30 -29 38 0 8 -4 14 -10 14 -5 0
-10 -9 -10 -20 0 -11 -4 -20 -10 -20 -5 0 -10 -22 -10 -50 0 -48 -1 -50 -27
-50 -48 -1 -92 -33 -128 -93 -19 -32 -35 -63 -35 -70 -1 -17 -25 -47 -38 -47
-6 0 -14 -9 -17 -20 -4 -12 -15 -20 -29 -20 -14 0 -28 -11 -39 -30 -18 -30
-40 -37 -64 -22 -14 9 -33 95 -33 151 0 59 -13 69 -50 38 -17 -15 -35 -27 -39
-27 -4 0 -7 -10 -5 -22 1 -13 3 -28 3 -34 1 -6 12 -28 26 -48 l25 -36 -33 -20
c-17 -11 -38 -20 -44 -20 -8 0 -13 -14 -13 -37 -1 -30 -3 -34 -10 -21 -6 9
-12 97 -15 195 -5 179 -11 253 -21 286 -5 15 -7 15 -20 2 -21 -21 -67 -31 -72
-16 -2 6 -10 18 -18 26 -28 27 -46 90 -65 219 -20 136 -28 165 -30 100 -1 -21
-3 -31 -6 -21 -6 23 -23 22 -23 -2 0 -10 -7 -24 -15 -31 -8 -7 -13 -15 -11
-19 8 -12 -12 -34 -33 -38 -12 -1 -21 0 -22 5 -1 8 -3 20 -22 120 -14 74 -27
104 -27 63 0 -14 -4 -20 -11 -15 -7 4 -9 0 -5 -14 4 -12 1 -26 -8 -34 -8 -9
-11 -20 -6 -28 4 -7 6 -20 3 -27 -5 -12 -7 -12 -14 -2 -5 9 -11 5 -20 -14 -7
-15 -16 -27 -21 -27 -4 0 -8 -7 -8 -15 0 -37 -17 -9 -29 47 -7 35 -17 71 -22
80 -10 18 -49 26 -49 10 0 -5 -9 -18 -19 -29 -11 -11 -21 -33 -23 -48 -4 -36
-23 -43 -39 -13 -12 23 -46 161 -99 413 -17 77 -38 164 -47 194 -14 45 -18 50
-24 33 -7 -18 -12 -20 -38 -12 -33 9 -45 1 -35 -24 9 -23 -4 -38 -25 -27 -19
10 -60 107 -62 144 -1 21 -2 21 -6 2 -3 -11 -10 -26 -15 -32 -7 -9 -6 -15 6
-19 9 -3 16 -14 15 -23 0 -9 -3 -11 -5 -4 -4 9 -15 8 -41 -5 -28 -13 -37 -14
-41 -4 -3 10 -7 10 -17 2 -11 -9 -16 -6 -26 12 -7 13 -20 29 -31 36 -10 7 -18
19 -18 27 0 7 -6 15 -12 18 -10 3 -10 9 0 28 9 18 10 33 2 59 -5 19 -10 48
-10 65 0 16 -16 80 -35 140 -74 235 -73 230 -45 365 16 80 2 182 -27 195 -23
10 -28 18 -59 95 -10 25 -28 59 -41 77 -13 17 -23 34 -23 38 0 3 -18 32 -39
64 -22 31 -46 74 -55 94 -8 20 -26 52 -40 69 -13 18 -32 59 -41 90 -10 37 -28
68 -48 88 -18 17 -80 77 -138 133 -58 56 -133 119 -165 140 -32 20 -81 62
-109 93 -115 129 -221 226 -280 256 -33 17 -89 59 -125 93 -36 34 -87 75 -115
91 -27 15 -63 38 -80 50 -43 32 -87 42 -350 78 -16 3 -52 8 -80 12 -27 3 -68
16 -90 27 -41 21 -155 50 -190 49 -11 -1 -45 5 -75 12 -60 14 -229 13 -320 -3
-43 -7 -60 -6 -77 5 -24 15 -72 16 -168 4z m1322 -2622 c-3 -8 -6 -5 -6 6 -1
11 2 17 5 13 3 -3 4 -12 1 -19z m4875 -450 c-9 -9 -12 -7 -12 12 0 19 3 21 12
12 9 -9 9 -15 0 -24z m1548 -148 c0 -5 -5 -10 -11 -10 -5 0 -7 5 -4 10 3 6 8
10 11 10 2 0 4 -4 4 -10z m-4120 -31 c0 -5 -4 -9 -10 -9 -5 0 -10 7 -10 16 0
8 5 12 10 9 6 -3 10 -10 10 -16z m234 -274 c4 -14 11 -25 16 -25 5 0 7 -6 5
-13 -8 -18 60 -78 79 -71 12 4 16 0 16 -15 0 -17 -6 -21 -33 -21 -28 0 -36 -5
-50 -35 -9 -20 -17 -44 -17 -55 0 -33 -19 -32 -25 2 -9 54 -22 232 -17 246 7
20 19 14 26 -13z m876 -144 c-1 -13 -4 -12 -15 3 -8 11 -15 27 -15 35 1 13 4
12 15 -3 8 -11 15 -27 15 -35z m-4350 24 c11 -13 10 -14 -4 -9 -9 3 -16 10
-16 15 0 13 6 11 20 -6z m119 -64 c9 -6 24 -6 38 0 18 7 25 5 30 -7 3 -8 13
-14 22 -12 9 1 34 -4 56 -12 22 -8 45 -15 51 -16 5 -1 36 -14 68 -28 43 -20
56 -31 52 -42 -4 -12 -1 -14 13 -9 11 3 23 0 28 -7 4 -8 20 -19 36 -25 15 -7
27 -20 27 -29 0 -12 6 -15 22 -11 32 9 66 -2 73 -23 9 -27 41 -60 59 -60 12 0
16 -10 18 -42 2 -66 13 -108 31 -120 6 -4 11 -23 10 -42 -1 -25 3 -36 13 -36
26 0 14 -19 -13 -22 -17 -2 -28 -9 -28 -18 0 -8 -24 -39 -52 -69 -29 -29 -52
-56 -51 -60 3 -28 -7 -43 -38 -56 -20 -8 -45 -26 -56 -40 -11 -14 -26 -25 -34
-25 -8 0 -13 -3 -11 -8 1 -4 -10 -32 -25 -62 -15 -30 -32 -70 -39 -88 -7 -21
-17 -31 -25 -28 -8 3 -14 1 -14 -4 0 -5 -11 -12 -25 -16 -14 -3 -29 -13 -34
-22 -14 -25 -60 -7 -76 31 -7 18 -23 38 -35 45 -11 7 -19 18 -18 26 4 16 -32
86 -54 107 -9 8 -19 26 -23 40 -3 14 -21 42 -40 63 -18 20 -50 71 -71 113 -21
41 -45 80 -54 86 -48 37 -101 118 -117 181 -15 62 -15 67 2 86 14 15 17 32 13
80 -3 38 -10 65 -18 70 -16 10 -16 11 25 30 28 13 29 14 8 18 -30 5 -29 20 2
34 14 6 25 15 25 20 0 15 42 8 125 -22 28 -10 45 -2 45 21 0 21 33 26 59 10z
m3670 -339 c1 -7 -3 -10 -9 -7 -5 3 -10 21 -9 38 1 31 1 31 9 7 4 -14 8 -31 9
-38z m352 -134 c10 -29 16 -54 14 -56 -2 -2 -15 4 -29 13 -26 17 -31 39 -20
83 8 29 13 24 35 -40z m64 -88 c6 -19 17 -36 23 -38 7 -2 10 -7 7 -11 -2 -5 9
-20 25 -35 22 -19 30 -36 31 -64 3 -65 6 -80 22 -96 9 -9 22 -16 30 -16 15 0
28 -28 31 -66 1 -11 16 -43 33 -70 34 -56 58 -144 39 -144 -23 1 -95 106 -107
156 -17 73 -30 104 -40 98 -37 -23 -99 76 -99 158 0 27 -7 65 -15 85 -18 43
-20 86 -3 81 6 -2 17 -19 23 -38z m-5457 -400 c36 -17 62 -33 59 -37 -4 -3
-37 -1 -74 6 -38 6 -90 15 -118 19 -50 7 -64 24 -25 30 11 2 20 8 20 14 0 17
66 2 138 -32z m5411 16 c6 -7 12 -25 13 -40 1 -14 6 -26 10 -26 4 0 8 -7 8
-16 0 -9 8 -23 18 -30 16 -12 15 -13 -5 -14 -28 0 -64 50 -70 100 -6 41 5 52
26 26z m-6689 -136 c0 -5 -2 -10 -4 -10 -3 0 -8 5 -11 10 -3 6 -1 10 4 10 6 0
11 -4 11 -10z m-12 -47 c-2 -10 -10 -18 -18 -18 -8 0 -16 8 -18 18 -2 12 3 17
18 17 15 0 20 -5 18 -17z m1119 -66 c7 -5 23 -7 35 -3 25 6 103 -19 129 -41
11 -10 28 -12 51 -8 25 5 49 0 91 -19 31 -14 57 -30 57 -36 0 -14 25 -40 39
-40 6 0 11 4 11 9 0 5 20 14 43 20 59 14 104 0 142 -43 l30 -35 55 20 c30 10
60 19 67 19 24 0 51 -37 58 -79 4 -22 11 -43 16 -47 5 -3 23 6 41 21 22 18 40
25 62 23 27 -3 31 -7 34 -38 5 -50 -14 -105 -44 -124 -32 -22 -60 -13 -79 25
-18 35 -53 39 -80 9 -25 -28 -74 -26 -116 6 l-34 25 -3 -24 c-4 -30 -24 -37
-118 -37 -52 0 -75 4 -84 15 -7 8 -25 15 -40 15 -15 0 -33 -7 -40 -15 -16 -19
-39 -19 -101 1 -45 15 -76 41 -105 90 -11 19 -12 19 -33 0 -11 -11 -21 -25
-21 -32 0 -22 -20 -26 -46 -9 -18 11 -24 23 -21 36 3 10 -2 28 -11 39 -15 18
-21 19 -49 8 -29 -11 -35 -10 -59 12 -39 37 -56 77 -56 135 -1 58 6 75 29 75
8 0 28 11 44 25 23 19 37 23 62 18 18 -3 38 -10 44 -16z m1673 -412 c0 -36
-21 -84 -37 -87 -9 -2 -21 -21 -27 -43 -8 -28 -20 -44 -40 -53 -15 -8 -30 -11
-33 -8 -11 11 -5 86 8 102 7 9 18 24 24 33 25 43 55 87 66 100 10 12 14 11 26
-5 7 -10 13 -28 13 -39z m-1807 26 c3 -13 11 -18 23 -15 11 3 28 -2 39 -10 19
-15 20 -15 1 -16 -25 0 -106 39 -106 51 0 18 38 9 43 -10z m161 -65 c13 3 27
-1 34 -9 10 -12 7 -16 -20 -21 -24 -5 -36 -2 -44 9 -7 9 -16 15 -20 14 -26 -5
-34 4 -9 10 17 4 31 3 33 -1 2 -4 14 -5 26 -2z m460 -66 c28 0 33 -11 13 -28
-15 -12 -57 -5 -57 10 0 5 -5 6 -10 3 -6 -3 -20 -3 -32 1 l-21 6 24 13 c15 9
30 10 41 4 9 -5 28 -9 42 -9z m826 -143 c0 -20 -25 1 -28 24 -2 23 -2 23 13 5
8 -11 15 -24 15 -29z m-32 -39 c13 -48 2 -57 -14 -12 -16 47 -16 44 -4 44 5 0
13 -15 18 -32z m3802 -623 c0 -8 8 -16 18 -17 9 0 24 -2 32 -2 9 -1 14 -9 12
-20 -2 -10 4 -19 16 -22 14 -4 19 -16 21 -51 3 -55 -13 -105 -50 -160 -28 -41
-30 -41 -66 -31 -21 5 -45 17 -55 25 -14 13 -17 12 -27 -4 -10 -17 -13 -16
-35 11 -27 32 -43 95 -28 105 6 3 13 32 17 63 9 69 18 83 70 102 53 19 75 19
75 1z m479 -158 c13 -13 0 -57 -16 -57 -8 0 -11 -5 -7 -11 4 -7 7 -24 6 -40
-1 -31 12 -45 48 -52 21 -4 20 -4 -7 -6 -48 -2 -112 -61 -105 -97 3 -17 -1
-31 -10 -38 -8 -6 -25 -31 -38 -56 -28 -57 -56 -87 -99 -107 l-34 -17 -35 38
c-33 37 -34 41 -29 96 9 78 22 104 71 136 47 30 105 88 115 115 3 11 27 29 51
41 31 16 44 28 42 41 -2 10 2 16 10 15 7 -2 15 8 17 22 4 22 5 22 9 5 2 -11 7
-24 11 -28z m-1961 -225 c6 -17 9 -32 7 -32 -9 0 -45 79 -45 97 0 21 19 -12
38 -65z m475 21 c6 -34 3 -52 -7 -42 -10 10 -17 79 -8 79 5 0 12 -17 15 -37z
m-224 -48 l-1 -30 -13 30 c-8 17 -14 41 -14 55 l0 25 14 -25 c8 -14 14 -38 14
-55z m1761 -93 c0 -6 7 -12 15 -16 8 -3 15 -14 15 -25 0 -14 10 -21 37 -28 28
-6 37 -14 40 -33 7 -45 4 -82 -9 -97 -9 -11 -9 -16 1 -22 17 -11 -5 -58 -31
-66 -10 -4 -18 -14 -18 -23 -1 -20 -44 -72 -60 -72 -5 0 -10 -6 -10 -12 0 -19
-91 -104 -117 -111 -34 -8 -72 14 -79 46 -3 16 -3 31 0 34 3 4 6 -2 6 -13 1
-18 1 -18 16 1 9 12 13 31 10 46 -3 15 -2 30 2 34 4 4 8 19 8 33 2 46 4 52 14
52 6 0 10 -6 10 -14 0 -18 33 -30 58 -21 22 6 42 45 42 78 0 30 -22 77 -36 77
-15 0 -24 33 -24 88 0 33 6 48 26 67 14 13 32 21 40 18 8 -3 14 0 14 7 0 7 5
6 15 -4 8 -8 15 -19 15 -24z m174 -57 c27 -20 16 -39 -12 -20 -21 16 -30 35
-14 35 4 0 15 -7 26 -15z m90 -264 c-2 -15 7 -46 19 -69 20 -42 23 -44 57 -38
28 4 41 1 64 -19 28 -24 31 -63 3 -52 -24 9 -48 -19 -41 -47 6 -25 8 -26 23
-11 25 21 29 19 45 -20 12 -29 20 -35 45 -35 34 0 61 -22 61 -50 0 -54 -164
-68 -216 -19 -47 43 -58 75 -43 126 l12 44 -41 42 c-22 23 -44 56 -48 72 -3
17 -12 40 -20 51 -12 20 -10 25 10 48 21 22 27 24 48 14 18 -9 24 -19 22 -37z
m-184 -91 c0 -5 -2 -10 -4 -10 -3 0 -8 5 -11 10 -3 6 -1 10 4 10 6 0 11 -4 11
-10z m1497 -307 c-2 -16 -4 -5 -4 22 0 28 2 40 4 28 2 -13 2 -35 0 -50z
m-1658 -28 c17 -30 24 -34 40 -26 21 12 32 5 24 -15 -3 -10 3 -14 20 -14 14 0
28 6 30 13 3 7 6 5 6 -5 1 -11 9 -18 21 -18 11 0 20 -6 20 -12 0 -14 -35 -71
-41 -67 -10 6 -56 -16 -75 -37 -23 -24 -22 -24 -72 11 -4 3 -13 45 -19 91 -4
35 11 114 22 114 2 0 12 -16 24 -35z m413 -50 c-2 -26 7 -50 33 -90 34 -54 36
-67 5 -42 -42 34 -76 129 -58 161 14 25 22 11 20 -29z m1245 13 c-3 -8 -6 -5
-6 6 -1 11 2 17 5 13 3 -3 4 -12 1 -19z m-774 -5 c-2 -7 -4 -35 -5 -62 -2 -43
-4 -47 -16 -32 -10 12 -15 13 -18 3 -3 -6 -9 -10 -14 -7 -4 3 -11 -7 -15 -22
-5 -23 -1 -33 29 -60 37 -34 51 -81 20 -69 -10 4 -13 2 -8 -6 5 -7 8 -35 8
-63 1 -44 3 -50 21 -48 28 4 43 -8 49 -40 4 -21 -4 -36 -40 -74 -45 -49 -55
-69 -29 -59 8 3 15 0 15 -6 0 -6 8 -17 18 -24 16 -12 16 -13 -4 -14 -12 0 -24
7 -28 15 -3 8 -12 15 -21 15 -8 0 -15 6 -15 13 0 6 -14 18 -31 26 -35 16 -92
97 -110 159 -14 48 -34 55 -44 15 -8 -34 -21 -43 -60 -43 -30 0 -30 -1 -32
-58 -4 -84 -3 -164 1 -187 3 -11 5 -37 5 -57 1 -24 6 -38 14 -38 7 0 20 -22
28 -48 12 -39 12 -52 2 -72 -7 -14 -13 -19 -13 -12 0 39 -57 -15 -73 -69 -17
-58 -50 -72 -95 -39 -17 12 -37 20 -46 17 -24 -9 -75 21 -92 55 -10 19 -14 44
-11 64 10 58 -52 87 -97 45 -54 -51 -165 -34 -150 24 3 13 1 26 -5 29 -6 4
-11 16 -11 28 0 11 -8 22 -20 25 -21 6 -35 36 -25 53 10 16 25 12 25 -7 0 -15
4 -13 23 8 46 52 54 54 71 15 8 -20 24 -45 35 -58 12 -12 21 -25 21 -30 0 -4
11 -8 25 -8 21 0 25 5 25 28 0 16 7 51 16 78 17 50 34 78 34 55 0 -7 4 -10 8
-7 13 8 13 68 0 83 -6 7 -8 20 -4 28 3 10 -3 17 -19 21 -14 3 -25 10 -25 16 0
5 -4 7 -9 3 -5 -3 -13 0 -17 6 -4 8 -3 9 4 5 13 -7 17 16 6 27 -11 11 -14 77
-4 102 14 37 32 30 65 -26 l30 -50 17 22 c10 11 18 20 19 18 7 -38 7 -49 -2
-49 -5 0 -7 -5 -4 -10 4 -6 19 -9 35 -8 15 1 35 -4 44 -11 15 -12 14 -15 -5
-32 -12 -11 -28 -19 -35 -19 -22 0 -27 -64 -10 -124 14 -47 20 -56 40 -56 29
0 44 -17 52 -58 7 -36 49 -85 67 -79 7 2 13 26 15 56 2 39 7 51 17 48 9 -4 12
2 10 21 -4 24 -15 217 -15 250 0 6 -7 12 -15 12 -9 0 -24 13 -33 30 -17 31
-32 39 -32 18 0 -6 -3 -9 -6 -5 -5 5 6 49 28 106 7 20 11 21 25 10 9 -8 24
-27 34 -43 14 -23 20 -26 24 -15 4 11 22 16 58 18 29 1 75 9 102 18 93 30 98
32 89 51 -15 36 -20 133 -7 144 7 6 13 16 13 24 0 9 13 12 43 11 27 -1 41 -6
40 -14z m-6698 -13 c-3 -5 -12 -10 -20 -10 -8 0 -17 5 -20 10 -4 6 5 10 20 10
15 0 24 -4 20 -10z m6085 -50 c0 -28 -11 -50 -25 -50 -16 0 -26 24 -20 45 16
49 15 48 30 35 8 -7 15 -21 15 -30z m1385 -7 c4 -16 9 -42 10 -59 5 -51 36
-90 68 -85 4 0 7 -10 7 -24 0 -25 -25 -45 -57 -45 -17 0 -53 -66 -53 -98 0 -6
-4 -12 -8 -12 -5 0 -14 -10 -20 -22 -10 -22 -11 -22 -11 7 -2 85 37 365 50
365 4 0 10 -12 14 -27z m-1805 -62 c0 -10 11 -29 25 -42 13 -13 25 -32 25 -41
0 -13 8 -18 28 -19 l27 -1 -25 -7 c-63 -18 -106 30 -101 112 1 23 21 22 21 -2z
m309 -3 c7 -18 5 -25 -10 -32 -10 -5 -19 -15 -19 -23 0 -7 -4 -13 -10 -13 -5
0 -10 11 -10 25 0 14 5 25 11 25 6 0 8 9 4 20 -9 29 23 26 34 -2z m-14 -229
c-4 -18 -3 -29 4 -29 6 0 11 -5 11 -11 0 -8 -5 -8 -15 1 -17 14 -21 85 -4 75
6 -4 7 -19 4 -36z m1198 -39 c15 -32 27 -67 27 -76 0 -10 10 -28 22 -42 21
-22 23 -31 20 -123 -2 -55 -7 -112 -11 -127 -5 -15 -5 -36 -1 -47 4 -11 5 -31
3 -45 -8 -44 -10 -364 -3 -380 4 -8 5 -54 2 -101 l-4 -85 -40 -18 c-40 -17
-41 -17 -92 9 -66 33 -79 43 -106 85 -12 19 -20 27 -16 18 3 -12 0 -18 -9 -18
-9 0 -15 10 -15 25 0 14 4 25 9 25 9 0 11 25 13 132 1 14 -9 47 -21 73 -21 45
-21 51 -12 237 9 172 8 193 -6 203 -12 9 -17 30 -17 82 -1 58 4 81 28 131 30
62 45 69 72 33 10 -13 15 -13 38 2 14 10 26 22 26 27 0 8 45 36 60 39 3 0 17
-26 33 -59z m-621 -188 c17 -44 78 -82 134 -84 31 -1 35 -4 32 -27 -2 -17 3
-29 17 -36 39 -20 61 -40 81 -76 33 -56 38 -102 15 -153 -22 -50 -44 -66 -95
-66 -19 0 -38 -5 -42 -11 -4 -7 -14 -4 -28 10 -11 12 -33 31 -48 42 -29 22
-48 57 -68 129 -11 40 -10 46 6 60 11 9 20 22 22 30 2 8 8 18 13 21 6 3 4 11
-5 18 -8 7 -20 10 -26 6 -6 -4 -10 6 -10 25 0 17 -7 47 -15 67 -16 39 -20 83
-7 83 5 0 16 -17 24 -38z m181 -39 c-7 -2 -19 -2 -25 0 -7 3 -2 5 12 5 14 0
19 -2 13 -5z m-915 -96 c2 -11 -3 -17 -17 -17 -23 0 -35 15 -26 31 10 15 39 6
43 -14z m-2548 -835 c0 -7 -4 -10 -10 -7 -5 3 -10 16 -10 28 0 18 2 19 10 7 5
-8 10 -21 10 -28z m-202 -48 c12 -8 35 -14 50 -13 15 2 41 -2 57 -8 17 -6 41
-11 55 -10 19 2 26 -3 28 -19 2 -17 -5 -24 -29 -33 -18 -6 -42 -11 -53 -11
-12 0 -27 -5 -33 -11 -21 -21 -77 7 -96 47 -18 36 -22 74 -9 74 4 0 18 -7 30
-16z m-422 -3698 c7 -29 -1 -46 -22 -46 -9 0 -14 10 -14 28 0 47 25 59 36 18z
m88 -22 c7 -19 -12 -47 -25 -38 -5 3 -9 16 -9 30 0 27 24 33 34 8z m-124 -115
c0 -10 -7 -19 -15 -19 -16 0 -19 9 -9 34 8 20 24 11 24 -15z m86 -25 c-4 -12
-10 -14 -17 -7 -5 5 -7 17 -3 27 4 12 10 14 17 7 5 -5 7 -17 3 -27z m-3881
-5442 c22 -4 63 -4 90 1 79 14 335 -3 335 -22 0 -4 -98 -7 -217 -7 -201 0
-221 -2 -263 -22 -32 -15 -48 -18 -57 -10 -32 26 4 84 47 73 14 -3 43 -10 65
-13z"/>
<path d="M15459 12061 c6 -10 24 -24 41 -29 29 -10 30 -10 29 16 0 15 -3 21
-6 15 -7 -19 -53 -16 -53 2 0 8 -5 15 -10 15 -7 0 -7 -6 -1 -19z"/>
<path d="M11885 18622 c-13 -14 -3 -42 14 -42 23 0 33 13 26 32 -6 14 -30 20
-40 10z"/>
<path d="M11602 17893 c4 -22 38 -30 38 -10 0 8 -7 18 -16 21 -23 9 -26 8 -22
-11z"/>
<path d="M17120 17790 c0 -27 3 -31 23 -28 22 3 40 48 19 48 -6 0 -17 3 -26 6
-13 5 -16 -1 -16 -26z"/>
<path d="M10241 17764 c0 -11 3 -14 6 -6 3 7 2 16 -1 19 -3 4 -6 -2 -5 -13z"/>
<path d="M8442 17138 c19 -34 41 -59 61 -70 18 -9 18 -8 1 19 -23 37 -55 73
-66 73 -4 0 -3 -10 4 -22z"/>
<path d="M8290 17075 c-10 -211 -10 -304 -1 -310 7 -4 11 4 11 19 0 15 5 25
12 24 6 -2 25 24 40 56 l29 60 -20 53 c-19 50 -70 120 -71 98z"/>
<path d="M8504 16518 c-14 -23 -22 -103 -12 -128 9 -24 10 -24 24 -6 9 12 14
44 14 83 0 60 -10 78 -26 51z"/>
<path d="M14711 16454 c0 -11 3 -14 6 -6 3 7 2 16 -1 19 -3 4 -6 -2 -5 -13z"/>
<path d="M15540 16291 c0 -5 5 -13 10 -16 6 -3 10 -2 10 4 0 5 -4 13 -10 16
-5 3 -10 2 -10 -4z"/>
<path d="M8870 14961 c0 -19 42 -23 58 -7 15 15 13 16 -21 16 -20 0 -37 -4
-37 -9z"/>
<path d="M8974 14769 c-16 -17 -16 -22 -4 -29 20 -13 26 -12 40 5 13 15 7 45
-8 45 -5 0 -17 -9 -28 -21z"/>
<path d="M14187 14483 c-11 -10 -8 -71 3 -78 6 -4 10 12 10 39 0 47 -2 51 -13
39z"/>
<path d="M13212 14320 c22 -71 27 -78 27 -45 0 17 -8 41 -19 55 l-20 25 12
-35z"/>
<path d="M12965 14210 c3 -5 8 -10 11 -10 2 0 4 5 4 10 0 6 -5 10 -11 10 -5 0
-7 -4 -4 -10z"/>
<path d="M9265 13210 c3 -5 8 -10 11 -10 2 0 4 5 4 10 0 6 -5 10 -11 10 -5 0
-7 -4 -4 -10z"/>
<path d="M8814 13133 c-32 -37 -76 -88 -96 -113 -20 -25 -47 -57 -60 -72 -48
-55 -58 -68 -51 -68 4 0 -2 -7 -14 -15 -13 -9 -19 -22 -16 -33 2 -10 -7 -30
-22 -46 -15 -16 -31 -38 -36 -50 -6 -11 -16 -32 -24 -46 -17 -30 -19 -98 -3
-160 6 -25 10 -56 9 -70 -1 -14 6 -45 14 -70 20 -60 45 -167 45 -193 0 -12 7
-31 15 -41 16 -21 37 -90 55 -179 7 -33 19 -68 28 -78 18 -21 22 -35 27 -119
6 -89 15 -122 29 -117 15 6 29 -20 46 -82 6 -22 21 -53 35 -69 13 -16 33 -51
43 -78 11 -27 22 -48 26 -47 55 14 87 13 103 -3 10 -10 18 -22 18 -28 0 -6 12
-12 28 -14 27 -3 34 11 27 57 -1 7 7 23 18 35 30 32 46 68 44 97 -1 14 4 46
12 71 18 63 10 182 -16 226 -19 32 -48 44 -48 20 0 -9 -4 -8 -10 2 -5 8 -10
11 -10 6 0 -5 -12 3 -26 17 -29 29 -33 69 -19 182 9 74 11 78 35 65 18 -10 19
-6 15 97 -2 60 -6 122 -10 138 -4 17 -10 50 -15 75 -5 25 -13 65 -19 90 -26
116 -42 229 -56 395 -21 241 -27 279 -46 283 -9 2 -40 -26 -75 -65z m-135
-586 c8 -31 12 -59 9 -62 -10 -10 -58 18 -58 34 0 13 2 13 9 2 6 -9 11 -10 15
-2 4 6 -1 22 -10 36 -17 26 -12 59 8 53 7 -3 19 -30 27 -61z m31 -192 c-1 -25
-27 -61 -37 -50 -5 4 -2 10 5 12 7 3 12 22 12 46 0 31 3 38 10 27 5 -8 10 -24
10 -35z"/>
<path d="M20223 12842 c-11 -7 -123 -237 -123 -253 0 -5 -3 -9 -7 -9 -5 0 -21
-22 -38 -50 -20 -32 -48 -59 -82 -80 -29 -18 -61 -39 -72 -48 -11 -10 -31 -26
-45 -36 -14 -10 -26 -23 -26 -28 0 -27 -124 -198 -144 -198 -5 0 -17 -7 -26
-15 -10 -9 -31 -17 -48 -20 -36 -4 -52 -12 -52 -26 0 -5 -13 -28 -30 -51 -16
-22 -30 -50 -30 -60 0 -10 -7 -33 -16 -49 -8 -17 -13 -33 -11 -35 3 -3 -1 -26
-9 -51 -9 -30 -12 -76 -9 -139 3 -68 1 -94 -7 -94 -9 0 -9 -3 0 -12 8 -8 6
-18 -8 -39 -11 -15 -24 -44 -28 -65 -7 -32 -12 -39 -30 -37 -12 2 -22 -1 -22
-6 0 -5 -8 -7 -19 -4 -10 3 -22 0 -25 -6 -4 -6 -25 -11 -46 -11 -30 0 -43 6
-59 26 -20 26 -22 26 -41 9 -10 -9 -52 -23 -93 -30 -41 -7 -85 -20 -98 -28
-13 -8 -49 -20 -79 -27 -30 -7 -57 -16 -60 -20 -3 -3 -26 -17 -52 -29 -41 -19
-48 -27 -48 -52 0 -33 29 -64 77 -80 18 -6 33 -14 33 -18 0 -10 -40 -43 -72
-60 -15 -8 -30 -22 -34 -33 -3 -10 -15 -18 -28 -18 -31 0 -37 -9 -24 -33 10
-20 11 -20 28 3 14 18 22 21 48 15 28 -6 52 -29 52 -50 0 -3 -17 -5 -37 -3
-36 3 -38 2 -36 -26 1 -17 -2 -35 -7 -41 -6 -8 -5 -18 5 -31 17 -22 19 -38 5
-29 -5 3 -10 2 -10 -3 0 -6 7 -12 15 -16 20 -7 38 -55 29 -75 -9 -19 -11 -27
-13 -42 -1 -8 -5 -9 -14 0 -8 6 -17 8 -20 4 -4 -3 -28 -7 -52 -7 -41 -1 -47 2
-52 24 l-7 25 -6 -25 c-4 -16 -12 -24 -23 -22 -23 4 -21 -10 3 -31 11 -9 20
-24 20 -32 0 -8 6 -15 13 -15 9 0 12 -11 9 -37 l-5 -38 28 33 c15 17 31 32 35
32 5 0 16 -17 25 -37 37 -87 61 -129 84 -147 21 -17 22 -24 16 -70 -4 -28 -7
-60 -7 -71 1 -21 -21 -94 -39 -126 -7 -13 -6 -19 1 -19 6 0 10 -10 9 -22 -2
-13 -1 -28 3 -33 12 -19 12 -95 0 -107 -17 -17 -15 -36 5 -56 23 -23 45 -22
66 4 13 18 17 38 15 101 -3 74 -1 82 25 116 15 20 39 40 52 43 40 10 39 33 -6
78 -40 40 -41 42 -36 96 3 30 14 73 25 95 11 22 22 64 26 93 11 85 43 176 81
225 19 25 48 81 64 124 16 43 44 110 62 148 l32 70 12 -40 c9 -32 17 -41 38
-43 30 -4 42 13 52 78 12 78 25 120 39 120 7 0 30 -13 52 -30 21 -16 43 -30
48 -30 5 0 18 -8 28 -17 27 -24 91 -44 102 -33 6 6 19 10 29 10 10 0 21 9 24
20 3 10 20 24 38 30 25 8 34 18 39 40 3 17 12 30 20 30 8 0 21 9 29 21 10 13
27 21 51 22 20 1 36 5 36 9 0 3 3 14 7 24 4 12 3 15 -5 10 -8 -5 -10 -2 -6 8
4 10 19 16 40 16 21 0 42 8 55 21 20 20 21 20 34 2 8 -10 17 -14 22 -9 4 5 2
11 -4 13 -19 7 -16 23 5 23 14 0 17 -10 19 -50 1 -28 -3 -50 -8 -50 -6 0 -17
-16 -25 -35 -8 -21 -19 -33 -25 -29 -6 4 -15 0 -20 -7 -6 -9 -12 -10 -16 -4
-17 22 -35 12 -66 -37 -19 -29 -42 -77 -52 -105 -13 -37 -24 -53 -36 -53 -21
0 -33 -16 -19 -25 15 -9 12 -23 -9 -44 -18 -18 -19 -26 -10 -73 14 -73 26
-129 34 -155 5 -16 3 -25 -9 -29 -22 -9 -20 -24 4 -24 29 0 26 -45 -5 -75 -25
-26 -78 -34 -90 -15 -3 6 -13 10 -21 10 -10 0 -14 -14 -14 -54 0 -48 -4 -57
-37 -93 -21 -22 -46 -43 -55 -46 -10 -4 -18 -15 -18 -26 0 -11 -11 -40 -24
-63 -13 -24 -26 -55 -30 -70 -3 -16 -11 -28 -16 -28 -6 0 -10 -17 -10 -37 0
-28 3 -34 10 -23 8 12 10 10 10 -9 0 -22 1 -23 24 -8 l24 16 6 -52 c3 -29 9
-69 12 -89 4 -22 2 -38 -3 -38 -21 0 -42 38 -49 90 l-8 55 -8 -65 c-5 -36 -6
-78 -3 -93 6 -36 -41 -115 -58 -98 -6 6 -23 11 -38 11 -30 0 -39 -19 -39 -84
0 -75 -49 -142 -110 -150 -17 -3 -44 -13 -79 -29 -23 -11 -34 -31 -47 -84 -7
-25 -7 -25 19 -9 19 13 39 16 79 12 l54 -5 30 56 c35 66 56 83 82 66 17 -10
21 -6 36 43 9 29 21 56 26 59 11 7 44 -80 37 -99 -3 -9 2 -16 14 -19 11 -3 23
-15 26 -26 8 -31 16 -26 51 32 31 51 32 55 17 83 -18 34 -20 127 -4 175 7 19
26 52 44 74 38 48 63 99 67 139 2 19 11 32 25 37 20 7 21 6 11 -22 -6 -17 -8
-32 -6 -34 2 -3 23 13 46 35 23 22 46 40 52 40 6 0 10 -27 10 -64 0 -36 5 -68
11 -71 8 -5 8 -99 0 -133 -1 -2 -17 -10 -36 -18 -41 -17 -43 -25 -13 -66 17
-25 19 -34 10 -49 -7 -10 -12 -25 -12 -33 0 -8 -5 -16 -12 -18 -15 -5 1 -84
17 -81 6 1 16 30 23 65 8 35 22 88 32 118 10 30 22 73 25 95 7 45 37 125 46
125 16 0 27 -54 23 -111 l-5 -64 20 23 c17 20 23 21 48 10 15 -7 40 -20 55
-30 26 -18 27 -18 33 1 11 37 31 44 54 20 l21 -23 1 55 c1 30 0 133 -1 230 -2
171 -1 178 24 231 25 54 28 56 79 65 28 5 73 8 100 5 l47 -4 -2 1147 -3 1147
-45 15 c-25 8 -52 21 -60 28 -25 20 -35 24 -47 17z m-12 -1353 c6 -10 12 -9
28 5 25 23 28 16 33 -71 5 -72 -9 -83 -39 -33 -13 22 -25 30 -45 30 -15 0 -28
-4 -28 -10 0 -5 -7 -10 -15 -10 -8 0 -15 -4 -15 -10 0 -5 -6 -7 -14 -4 -7 3
-21 -2 -30 -11 -14 -15 -17 -15 -22 -1 -3 9 -10 13 -15 10 -5 -3 -9 -2 -10 3
0 4 -2 16 -4 26 -2 9 1 17 5 17 5 0 17 13 26 29 10 16 27 34 38 40 27 13 97 6
107 -10z m-81 -249 c0 -11 -6 -20 -14 -20 -9 0 -12 7 -9 20 3 11 9 20 14 20 5
0 9 -9 9 -20z m-1267 -453 l-6 -67 -33 0 c-32 0 -33 1 -27 38 6 44 51 118 64
105 5 -5 6 -39 2 -76z m1047 -81 c0 -8 -4 -18 -10 -21 -5 -3 -10 3 -10 14 0
12 5 21 10 21 6 0 10 -6 10 -14z m11 -53 c0 -5 2 -25 5 -45 2 -20 0 -39 -6
-43 -5 -3 -10 -17 -10 -30 0 -13 -4 -27 -10 -30 -5 -3 -10 -25 -10 -47 0 -23
-3 -39 -6 -35 -8 8 -20 174 -15 210 1 4 8 7 16 7 8 0 15 5 15 10 0 11 20 14
21 3z m-240 -348 c1 -8 2 -22 3 -32 0 -9 -6 -18 -14 -20 -12 -4 -12 -3 -1 5 9
7 10 12 2 16 -14 9 -15 46 -1 46 6 0 11 -7 11 -15z m26 -47 c-3 -8 -6 -5 -6 6
-1 11 2 17 5 13 3 -3 4 -12 1 -19z m-17 -33 c0 -8 -4 -15 -10 -15 -5 0 -10 7
-10 15 0 8 5 15 10 15 6 0 10 -7 10 -15z m-153 -217 c-3 -8 -6 -5 -6 6 -1 11
2 17 5 13 3 -3 4 -12 1 -19z"/>
<path d="M7733 12204 c-17 -9 -51 -40 -74 -70 -24 -29 -64 -64 -89 -77 -25
-13 -101 -54 -170 -90 -130 -69 -192 -92 -320 -122 -219 -51 -353 -130 -536
-317 -108 -110 -145 -161 -217 -303 -72 -142 -102 -215 -135 -326 -61 -206
-83 -369 -102 -754 -6 -115 -17 -259 -25 -320 -8 -60 -17 -162 -20 -226 -3
-64 -10 -143 -16 -175 -5 -33 -10 -141 -9 -241 0 -132 -4 -198 -15 -240 -59
-221 -77 -381 -84 -743 l-7 -325 -47 -155 c-44 -148 -114 -324 -189 -475 -19
-38 -45 -97 -57 -130 -13 -33 -31 -78 -41 -100 -10 -22 -43 -102 -74 -179 -31
-76 -97 -227 -146 -335 -50 -108 -97 -209 -104 -226 -40 -86 -128 -259 -152
-296 -30 -47 -107 -239 -158 -391 -32 -97 -86 -267 -190 -598 -51 -161 -85
-315 -116 -525 -12 -77 -30 -180 -40 -230 -10 -49 -24 -130 -30 -180 -6 -49
-15 -115 -20 -145 -5 -30 -16 -116 -25 -190 -9 -74 -23 -182 -32 -240 -8 -58
-17 -177 -18 -265 -2 -88 -4 -200 -5 -250 0 -49 -1 -318 -1 -598 1 -327 -3
-533 -10 -579 -14 -89 -47 -194 -91 -284 -19 -38 -47 -105 -62 -149 -16 -44
-36 -98 -46 -120 -26 -58 -60 -159 -80 -242 -10 -39 -21 -76 -24 -82 -4 -5
-24 -70 -46 -143 -21 -73 -50 -167 -63 -208 -14 -41 -37 -127 -52 -190 -26
-112 -32 -135 -75 -287 -11 -39 -20 -74 -20 -77 0 -3 445 -6 990 -6 l990 0 4
23 c11 53 26 212 32 327 6 136 36 421 59 565 18 111 75 322 110 404 41 98 77
222 77 262 0 21 -10 57 -21 80 -12 24 -21 48 -21 55 0 6 -7 14 -15 18 -21 8
-19 26 4 26 23 0 38 37 22 53 -6 6 -11 19 -11 28 0 16 -26 34 -43 31 -4 -1 -6
1 -6 5 4 22 -3 31 -25 37 -17 4 -26 15 -31 37 -4 17 -10 28 -13 24 -9 -9 -31
88 -37 170 -4 39 -11 103 -16 143 -13 108 -11 295 5 387 18 99 56 203 100 269
31 48 118 187 261 423 33 54 63 107 66 118 3 11 2 49 -2 85 -12 96 -28 349
-31 478 -1 89 -4 112 -15 110 -15 -3 -49 78 -55 130 -2 15 -7 30 -11 33 -22
16 -81 310 -107 534 -12 99 -23 194 -25 210 -2 17 -11 102 -19 190 -9 88 -18
176 -21 195 -4 19 -8 179 -10 355 -1 176 -6 359 -10 406 -9 113 10 426 35 564
41 236 179 819 225 950 9 28 26 85 36 128 10 42 27 94 37 115 11 20 24 59 31
86 7 28 32 97 56 155 23 58 55 144 70 191 15 47 41 119 57 160 17 41 47 118
68 170 34 87 142 337 258 600 26 58 103 218 172 355 69 138 137 282 152 320
32 81 72 150 129 220 26 33 47 74 60 120 48 162 100 249 208 344 85 76 101
102 101 173 0 81 23 115 115 171 109 65 122 80 146 161 12 39 41 101 66 139
28 43 43 76 40 88 -3 10 0 19 6 19 21 1 -27 24 -53 26 -14 2 -40 8 -57 16 -32
12 -34 11 -61 -21 -48 -58 -64 -46 -153 114 -92 163 -139 278 -139 336 0 53
39 132 103 207 26 31 47 60 47 64 0 6 -53 38 -62 38 -2 0 -17 -7 -35 -16z"/>
<path d="M10030 12121 c0 -21 13 -41 26 -41 11 0 11 5 2 25 -11 24 -28 34 -28
16z"/>
<path d="M9890 12060 c-11 -7 -12 -12 -3 -21 14 -14 49 -4 57 16 6 17 -30 21
-54 5z"/>
<path d="M9616 11781 c-9 -10 -16 -25 -16 -34 0 -10 -6 -26 -12 -37 -18 -28 4
-41 58 -33 26 3 44 1 48 -6 4 -6 17 -11 29 -11 16 0 18 3 9 12 -9 9 -8 16 4
29 20 22 12 36 -27 44 -16 4 -40 17 -53 30 -23 23 -25 23 -40 6z"/>
<path d="M10346 11475 c-44 -47 -6 -93 61 -76 60 16 113 35 113 42 0 7 -124
59 -141 59 -5 0 -21 -11 -33 -25z"/>
<path d="M0 10639 l0 -744 78 3 c42 2 82 8 89 14 7 6 14 5 18 -2 3 -6 12 -7
18 -3 7 4 21 9 32 10 11 1 43 4 70 7 28 2 106 7 175 10 122 6 226 22 244 37 4
4 -27 10 -70 13 -44 4 -124 10 -179 15 -55 5 -121 7 -148 5 -36 -3 -47 -1 -47
10 0 8 10 14 23 14 122 2 333 16 335 23 5 12 52 11 52 -1 0 -5 5 -10 11 -10 5
0 7 5 4 10 -3 6 2 10 12 10 21 0 63 27 63 40 0 32 -74 40 -338 39 -132 -1
-213 9 -187 23 10 6 41 8 72 4 37 -4 60 -2 69 5 12 10 13 9 8 -5 -5 -13 -2
-15 12 -10 11 4 24 11 30 15 6 5 14 6 18 2 8 -8 127 -7 155 2 12 4 18 12 14
21 -3 7 0 14 6 14 6 0 10 -3 10 -7 -5 -30 2 -35 44 -28 28 5 50 17 67 36 25
28 26 28 85 17 33 -6 66 -15 73 -20 8 -7 12 -7 12 0 0 6 -6 12 -13 15 -6 2 -9
7 -6 11 3 4 19 2 34 -4 53 -20 75 3 75 81 0 19 5 40 12 47 8 8 6 16 -11 30
-21 16 -22 21 -11 57 6 22 10 56 8 75 -4 40 3 39 -173 41 -60 1 -115 5 -121
10 -6 5 -26 8 -45 7 -19 -1 -70 -1 -114 1 -76 3 -78 4 -35 12 25 4 79 5 121 2
63 -4 78 -2 93 12 9 10 25 15 36 12 11 -3 20 -2 20 2 0 4 28 4 63 0 82 -10
133 -2 150 25 7 11 19 52 26 90 13 67 13 69 -8 85 -17 13 -19 19 -9 29 12 12
15 20 24 83 6 33 4 37 -25 49 -38 15 -38 21 -3 41 24 14 30 26 41 86 9 51 19
77 37 94 30 28 30 42 2 62 l-23 16 27 0 c18 1 29 8 34 23 9 30 -19 48 -75 49
-112 1 -479 12 -833 24 l-228 8 0 -744z m873 372 c20 0 37 -4 37 -8 0 -9 -158
-16 -171 -7 -21 12 4 23 49 20 26 -2 64 -4 85 -5z m107 -11 c0 -5 -2 -10 -4
-10 -3 0 -8 5 -11 10 -3 6 -1 10 4 10 6 0 11 -4 11 -10z m-172 -587 c-6 -7
-14 -13 -19 -13 -13 0 -11 19 4 34 16 18 31 -3 15 -21z"/>
<path d="M10609 11338 c-25 -24 -38 -43 -31 -46 6 -2 12 -14 12 -26 0 -30 9
-37 31 -26 10 6 19 6 21 1 2 -6 29 -12 61 -14 32 -2 63 -9 70 -16 6 -6 21 -11
34 -11 13 0 23 -3 23 -8 0 -4 17 -16 38 -26 20 -10 45 -22 54 -27 16 -8 218
-2 227 7 2 2 -36 22 -85 45 -49 22 -152 71 -229 109 -77 37 -149 71 -161 74
-15 5 -32 -5 -65 -36z"/>
<path d="M9462 11363 c-15 -6 -6 -23 12 -23 7 0 13 7 13 15 0 16 -4 17 -25 8z"/>
<path d="M4401 11311 c-12 -7 -15 -69 -17 -338 -2 -219 0 -337 7 -355 8 -20 8
-41 -1 -79 -9 -35 -9 -53 -2 -58 7 -4 7 -22 2 -51 -5 -25 -9 -78 -10 -118 0
-65 3 -76 25 -98 14 -14 32 -23 39 -21 9 4 16 -3 18 -17 6 -32 -1 -46 -25 -46
-42 0 -60 -32 -42 -73 4 -11 1 -33 -9 -55 -19 -43 -19 -107 1 -124 9 -7 42 -9
106 -4 50 4 121 7 156 6 43 -1 67 3 72 11 6 11 17 11 50 2 52 -14 120 -8 134
11 7 9 31 15 60 16 143 5 204 8 238 15 27 5 37 4 37 -5 0 -9 7 -7 20 5 13 12
20 14 20 6 0 -9 21 -11 80 -8 45 3 84 7 87 11 4 3 2 6 -3 6 -5 0 -61 5 -124
11 -63 6 -124 11 -135 11 -11 -1 -63 6 -115 14 -52 8 -101 16 -107 16 -7 1
-13 6 -13 12 0 5 -6 2 -13 -9 -14 -18 -43 -13 -32 6 4 5 -8 9 -24 9 -38 0 -41
20 -3 21 15 1 36 3 47 5 43 6 212 17 248 15 22 -1 44 5 52 13 12 12 10 15 -18
20 -18 3 -68 8 -112 11 -44 3 -105 8 -135 11 -124 12 -145 13 -187 5 -24 -5
-46 -5 -49 0 -6 11 -123 8 -130 -3 -7 -10 -62 21 -68 39 -3 7 -2 13 2 13 7 0
21 28 41 83 7 17 18 27 31 27 27 0 26 18 -2 30 -18 7 -12 9 30 9 28 1 52 6 52
11 0 6 9 10 20 10 11 0 20 -4 20 -10 0 -5 4 -10 9 -10 4 0 8 10 7 23 -1 12 -7
21 -15 19 -7 -1 -18 2 -25 7 -6 5 -38 12 -71 15 -33 2 -61 5 -62 5 -2 1 -3 8
-3 16 0 11 5 12 26 5 33 -13 34 -13 34 5 0 8 -7 15 -15 15 -18 0 -19 9 -1 33
9 12 16 14 21 7 3 -5 10 -8 15 -5 5 3 43 8 84 11 55 4 76 2 76 -7 0 -7 11 -9
33 -5 17 3 64 7 102 7 39 1 60 3 48 6 -40 8 -25 21 17 16 25 -4 40 -2 40 5 0
6 8 13 18 16 9 3 -3 4 -28 2 -25 -2 -74 3 -109 11 -44 10 -108 13 -212 10
-116 -3 -149 -1 -153 10 -4 9 -25 13 -66 13 -62 0 -76 11 -39 30 15 9 24 8 35
-1 12 -9 20 -9 42 2 15 8 29 17 32 20 3 3 15 11 28 18 12 6 22 17 22 23 0 13
81 88 97 88 6 0 14 -6 17 -12 5 -10 7 -10 12 0 3 6 13 12 22 12 15 1 14 3 -2
15 -15 12 -16 15 -5 15 9 0 22 -11 29 -25 14 -27 30 -31 59 -16 10 6 42 6 75
2 32 -4 59 -4 62 1 4 5 13 7 21 3 16 -5 73 15 73 26 0 10 -44 28 -70 29 -14 0
-50 3 -80 5 -30 3 -102 7 -160 9 -173 7 -180 8 -180 17 0 5 10 9 22 9 12 0 29
6 37 13 29 24 68 36 79 25 6 -6 17 -5 32 4 14 8 24 9 26 3 5 -11 223 -13 241
-2 7 4 92 7 190 6 280 -4 295 -3 308 15 16 21 31 20 48 -4 14 -20 14 -20 32 0
25 28 4 52 -44 49 -20 -1 -46 1 -59 5 -12 4 -116 9 -230 12 -114 2 -236 6
-272 9 -36 3 -77 5 -92 5 -15 0 -29 4 -33 10 -8 12 -49 10 305 16 211 4 312
10 330 18 14 7 41 13 60 15 19 1 39 6 44 11 6 6 18 10 27 10 9 0 22 6 28 14
13 16 60 7 87 -15 11 -9 14 -8 14 4 0 9 8 22 18 29 44 33 70 83 70 136 0 29
-4 55 -9 58 -5 3 -103 7 -217 9 -114 2 -288 7 -387 10 -99 4 -299 8 -445 10
-146 1 -290 5 -320 9 -31 4 -61 3 -69 -3z m227 -320 c10 -6 9 -10 -7 -14 -21
-5 -36 5 -24 17 8 8 15 7 31 -3z m92 -3 c0 -5 -16 -8 -35 -8 -19 0 -35 4 -35
10 0 5 16 9 35 7 19 -1 35 -5 35 -9z m68 -7 c10 -6 7 -10 -13 -15 -28 -7 -49
0 -40 15 8 11 36 12 53 0z m-168 -131 c0 -5 -2 -10 -4 -10 -3 0 -8 5 -11 10
-3 6 -1 10 4 10 6 0 11 -4 11 -10z m380 -90 c0 -5 -4 -10 -9 -10 -6 0 -13 5
-16 10 -3 6 1 10 9 10 9 0 16 -4 16 -10z m-480 -620 c0 -5 -9 -10 -21 -10 -11
0 -17 5 -14 10 3 6 13 10 21 10 8 0 14 -4 14 -10z m194 -102 c4 4 6 1 4 -7 -3
-15 29 -24 38 -10 8 14 24 11 24 -6 0 -17 -55 -21 -65 -5 -3 6 -15 10 -25 10
-13 0 -18 5 -14 15 5 11 10 13 19 5 6 -5 15 -6 19 -2z m-100 -23 c4 -11 -2
-15 -24 -15 -29 0 -45 12 -33 24 12 12 51 6 57 -9z"/>
<path d="M8956 11285 c-6 -24 -26 -36 -26 -15 0 15 -19 12 -37 -6 -11 -11 -16
-37 -17 -92 -1 -103 8 -141 49 -195 26 -34 43 -77 70 -173 20 -71 41 -139 46
-152 5 -13 9 -42 9 -65 0 -53 9 -87 23 -87 6 0 30 19 52 43 38 38 92 86 162
142 18 15 26 33 30 66 l5 46 -33 -1 c-35 -2 -89 -24 -89 -36 0 -4 -14 -10 -30
-12 -21 -3 -35 1 -47 14 -9 10 -22 18 -30 18 -14 0 -19 51 -6 64 4 4 9 30 11
59 2 29 7 58 12 66 7 14 -9 82 -29 120 -6 10 -24 22 -40 26 -16 3 -37 15 -47
26 -9 10 -23 19 -31 19 -7 0 -13 10 -13 23 0 16 3 18 9 8 12 -19 18 -3 20 56
1 55 -13 79 -23 38z"/>
<path d="M9120 11253 c0 -10 14 -26 30 -35 36 -20 37 -17 8 22 -25 34 -38 38
-38 13z"/>
<path d="M18673 11245 c-30 -13 -29 -47 1 -79 23 -26 38 -33 34 -18 -1 4 2 19
6 34 5 16 3 35 -6 50 -11 20 -17 22 -35 13z"/>
<path d="M9198 11126 c-10 -7 -15 -16 -11 -19 12 -12 51 -7 56 7 11 27 -16 34
-45 12z"/>
<path d="M5410 10770 c-21 -13 16 -33 39 -20 12 6 21 12 21 14 0 8 -49 13 -60
6z"/>
<path d="M18721 10764 c0 -11 3 -14 6 -6 3 7 2 16 -1 19 -3 4 -6 -2 -5 -13z"/>
<path d="M5090 10766 c0 -9 30 -14 35 -6 4 6 -3 10 -14 10 -12 0 -21 -2 -21
-4z"/>
<path d="M5186 10758 c3 -4 9 -8 15 -8 5 0 9 4 9 8 0 5 -7 9 -15 9 -8 0 -12
-4 -9 -9z"/>
<path d="M4820 10645 c0 -8 4 -15 10 -15 5 0 7 7 4 15 -4 8 -8 15 -10 15 -2 0
-4 -7 -4 -15z"/>
<path d="M4784 10365 c-10 -25 15 -45 55 -44 20 0 30 3 23 6 -10 4 -8 8 5 18
23 17 18 22 -35 30 -33 5 -44 3 -48 -10z m43 -31 c-3 -3 -12 -4 -19 -1 -8 3
-5 6 6 6 11 1 17 -2 13 -5z"/>
<path d="M4927 10356 c-22 -6 -35 -14 -31 -18 10 -11 94 -10 94 1 0 21 -26 28
-63 17z"/>
<path d="M4589 10241 c-13 -11 -19 -20 -14 -20 14 0 50 28 43 34 -3 3 -16 -3
-29 -14z"/>
<path d="M915 10120 c-18 -7 -18 -8 -2 -14 41 -14 47 -15 47 -2 0 18 -20 25
-45 16z"/>
<path d="M840 10106 c0 -9 30 -14 35 -6 4 6 -3 10 -14 10 -12 0 -21 -2 -21 -4z"/>
<path d="M5264 10099 c-10 -16 15 -28 61 -31 22 -1 56 -2 75 -4 43 -2 70 4 70
17 0 5 -9 9 -21 9 -11 0 -17 -4 -14 -10 3 -5 2 -10 -4 -10 -5 0 -11 6 -13 12
-3 8 -28 13 -66 15 -34 1 -66 4 -71 8 -5 3 -13 0 -17 -6z"/>
<path d="M17550 10000 c0 -5 5 -10 10 -10 6 0 10 5 10 10 0 6 -4 10 -10 10 -5
0 -10 -4 -10 -10z"/>
<path d="M19580 9691 c-26 -50 -1 -74 35 -35 19 21 22 30 14 40 -16 20 -37 17
-49 -5z"/>
<path d="M19863 8606 c-13 -6 -23 -19 -23 -29 0 -10 4 -16 9 -13 5 3 12 -2 15
-11 6 -14 -8 -32 -25 -33 -9 0 -29 48 -29 70 0 16 -7 20 -35 20 -32 0 -34 -3
-40 -37 -3 -21 -13 -72 -21 -114 -21 -98 -16 -459 7 -500 29 -52 82 -82 93
-53 3 8 12 14 21 14 8 0 15 4 15 10 0 5 -8 7 -17 4 -15 -5 -15 -3 1 10 11 9
27 16 35 16 12 0 12 3 3 12 -7 7 -12 28 -12 48 0 19 -5 51 -10 70 -9 32 -11
71 -7 182 1 26 6 38 19 41 10 3 18 14 18 26 0 12 4 21 9 21 13 0 29 48 36 108
4 40 2 54 -9 58 -9 3 -14 18 -13 40 1 42 -11 54 -40 40z"/>
<path d="M19920 7882 c-16 -13 -20 -21 -12 -26 8 -4 12 0 12 11 0 15 2 15 9 4
7 -10 2 -20 -17 -35 -15 -11 -29 -23 -32 -26 -3 -3 -11 -5 -19 -5 -8 0 -20
-20 -27 -45 -16 -52 -24 -170 -12 -170 4 0 8 -4 8 -10 0 -5 -6 -10 -14 -10
-11 0 -12 -6 -4 -28 9 -23 6 -36 -15 -79 -22 -43 -30 -50 -48 -46 -20 6 -22 3
-16 -25 4 -19 2 -32 -3 -32 -6 0 -10 -6 -10 -14 0 -8 -5 -16 -10 -18 -6 -2
-12 -19 -14 -39 -3 -32 -1 -36 15 -32 15 4 18 1 13 -11 -3 -9 -13 -16 -21 -16
-11 0 -13 -7 -8 -29 3 -17 2 -32 -4 -36 -6 -3 -11 -1 -11 4 0 19 -28 12 -33
-9 -3 -13 -10 -18 -21 -14 -9 3 -16 1 -16 -5 0 -6 7 -11 16 -11 8 0 12 -5 9
-11 -4 -6 0 -16 9 -22 14 -11 13 -13 -10 -24 -20 -9 -26 -9 -31 3 -3 8 -18 14
-34 14 -16 0 -29 5 -29 10 0 6 -6 10 -14 10 -7 0 -29 13 -47 30 -35 30 -84 54
-130 64 -17 4 -54 38 -103 93 -42 49 -97 112 -124 141 -26 28 -57 64 -70 78
-13 15 -26 23 -30 20 -3 -4 -5 -32 -4 -62 1 -32 -2 -53 -7 -50 -5 3 -23 3 -40
0 -25 -5 -36 -16 -51 -49 -28 -62 -87 -89 -173 -80 -71 8 -66 12 -70 -69 -2
-29 -7 -41 -21 -46 -17 -6 -15 -9 15 -20 18 -7 45 -14 59 -15 14 -2 42 -6 64
-10 41 -9 56 2 56 41 0 12 7 27 15 34 9 7 14 19 11 26 -3 7 0 16 6 20 8 5 9
-3 5 -24 -5 -24 -3 -32 8 -32 7 0 17 4 20 10 4 6 19 4 41 -5 34 -14 35 -14 55
18 11 18 17 41 14 54 -10 42 23 82 68 83 15 0 6 -29 -17 -58 -23 -26 -24 -31
-10 -56 7 -16 14 -36 14 -45 0 -10 11 -27 25 -39 23 -20 27 -50 5 -37 -5 3
-21 -6 -36 -20 -26 -24 -26 -26 -9 -45 10 -11 26 -20 36 -20 9 0 30 -13 46
-30 15 -16 32 -30 36 -30 14 0 37 -28 37 -44 0 -22 38 -83 56 -90 11 -4 18 1
21 14 4 15 11 19 25 14 13 -4 24 -1 29 7 7 11 9 11 9 1 0 -9 5 -10 19 -2 29
15 77 12 95 -6 9 -8 16 -29 16 -45 0 -19 5 -29 15 -29 8 0 15 -8 15 -18 0 -19
68 -95 117 -129 40 -28 46 -29 38 -3 -5 15 -2 20 14 20 11 0 26 -7 34 -15 8
-8 17 -11 21 -8 7 8 46 -36 46 -52 0 -15 34 -55 48 -55 5 0 12 -9 15 -21 5
-19 2 -21 -31 -16 -72 10 -102 16 -121 26 -27 15 -41 14 -41 -3 0 -8 -9 -21
-21 -29 -20 -15 -20 -15 20 -99 23 -47 41 -89 41 -94 0 -5 16 -29 35 -53 19
-24 35 -53 35 -65 0 -12 11 -61 24 -110 15 -52 23 -101 19 -118 -5 -23 -3 -27
11 -22 16 6 78 -18 103 -40 7 -6 19 -17 28 -24 8 -7 18 -31 21 -52 4 -22 10
-40 15 -40 5 0 9 -6 9 -13 0 -21 30 -78 63 -119 23 -28 28 -43 23 -63 -4 -14
-3 -31 1 -38 4 -6 6 -26 4 -44 -4 -52 48 -128 71 -105 7 7 18 12 26 12 14 0
89 -75 120 -119 24 -36 25 -93 1 -146 -20 -45 -23 -47 -54 -42 -29 5 -34 2
-40 -20 -5 -21 -10 -24 -33 -20 -48 10 -58 -8 -19 -32 19 -11 39 -21 46 -21 6
0 23 -14 38 -30 24 -27 100 -70 124 -70 5 0 9 420 9 961 l0 960 -29 25 c-34
28 -48 64 -59 148 l-7 57 -88 46 c-62 33 -90 44 -98 36 -14 -14 13 -68 41 -83
32 -17 23 -30 -20 -30 -91 0 -160 61 -160 141 0 24 6 64 14 89 8 25 33 115 56
200 23 85 49 182 58 214 13 46 14 60 5 63 -7 3 -13 11 -13 19 0 8 -9 24 -20
36 -11 12 -20 27 -20 34 0 8 -16 14 -37 16 -29 2 -39 8 -41 23 -6 32 -17 37
-42 17z m-221 -826 c-12 -10 -49 -16 -49 -7 0 16 34 31 44 21 5 -6 8 -11 5
-14z m15 -24 c2 -4 -4 -9 -15 -9 -10 -1 -19 2 -19 8 0 11 27 12 34 1z"/>
<path d="M19841 7864 c0 -11 3 -14 6 -6 3 7 2 16 -1 19 -3 4 -6 -2 -5 -13z"/>
<path d="M18255 7250 c3 -5 11 -10 16 -10 6 0 7 5 4 10 -3 6 -11 10 -16 10 -6
0 -7 -4 -4 -10z"/>
<path d="M18300 7240 c0 -5 7 -10 16 -10 8 0 12 5 9 10 -3 6 -10 10 -16 10 -5
0 -9 -4 -9 -10z"/>
<path d="M18300 7013 c1 -16 28 -43 43 -43 8 0 18 -7 21 -16 4 -11 13 -14 29
-10 16 4 26 -1 35 -14 11 -18 21 -19 106 -15 53 3 107 0 122 -5 39 -15 44 -2
9 26 -28 22 -36 24 -102 18 -67 -6 -74 -5 -120 23 -59 36 -99 48 -107 30 -5
-9 -7 -9 -12 1 -6 13 -24 17 -24 5z"/>
<path d="M18735 6760 c3 -5 10 -10 16 -10 5 0 9 5 9 10 0 6 -7 10 -16 10 -8 0
-12 -4 -9 -10z"/>
<path d="M17590 6710 c0 -6 7 -13 15 -16 8 -4 15 -15 15 -25 0 -19 11 -25 23
-13 9 10 -11 42 -33 54 -14 8 -20 8 -20 0z"/>
<path d="M17710 6602 c0 -5 9 -12 21 -15 12 -3 18 -10 14 -16 -3 -7 2 -11 14
-11 24 0 26 6 8 24 -17 18 -57 30 -57 18z"/>
<path d="M19265 6591 c-3 -5 3 -17 12 -27 11 -11 18 -13 21 -5 9 28 -18 55
-33 32z"/>
<path d="M17776 6550 c-19 -6 -19 -7 -1 -14 10 -3 22 -3 28 3 12 12 -4 20 -27
11z"/>
<path d="M17820 6510 c0 -5 7 -10 15 -10 8 0 15 5 15 10 0 6 -7 10 -15 10 -8
0 -15 -4 -15 -10z"/>
<path d="M17860 6490 c0 -5 5 -10 11 -10 5 0 7 5 4 10 -3 6 -8 10 -11 10 -2 0
-4 -4 -4 -10z"/>
<path d="M17920 6454 c0 -9 32 -33 44 -34 5 0 -1 9 -14 20 -25 21 -30 24 -30
14z"/>
<path d="M17705 6441 c-3 -5 -1 -12 5 -16 5 -3 10 1 10 9 0 18 -6 21 -15 7z"/>
<path d="M17891 5434 c0 -11 3 -14 6 -6 3 7 2 16 -1 19 -3 4 -6 -2 -5 -13z"/>
<path d="M229 2095 c-1 -5 -1 -13 0 -17 0 -5 -10 -8 -24 -8 -21 0 -25 -5 -25
-29 0 -34 12 -45 39 -36 23 7 34 45 22 77 -6 13 -11 19 -12 13z"/>
</g>
</svg>
